<?xml version="1.0" encoding="utf-8"?>
<!-- Generator: Adobe Illustrator 27.5.0, SVG Export Plug-In . SVG Version: 6.00 Build 0)  -->
<svg version="1.1" xmlns="http://www.w3.org/2000/svg" xmlns:xlink="http://www.w3.org/1999/xlink" x="0px" y="0px"
	 viewBox="0 0 750 500" style="enable-background:new 0 0 750 500;" xml:space="preserve">
<g id="BACKGROUND">
	<rect style="fill:#F8FAFF;" width="750" height="500"/>
</g>
<g id="OBJECTS">
	<g>
		<defs>
			<rect id="SVGID_1_" width="750" height="500"/>
		</defs>
		<clipPath id="SVGID_00000040563304286029562530000005330709432901922479_">
			<use xlink:href="#SVGID_1_"  style="overflow:visible;"/>
		</clipPath>
		<path style="opacity:0.15;clip-path:url(#SVGID_00000040563304286029562530000005330709432901922479_);fill:#AED1EF;" d="
			M272.511,906.78L2.412,595.308c-3.57-4.116-3.126-10.347,0.99-13.917l311.472-270.099c4.116-3.57,10.347-3.126,13.916,0.99
			L598.89,623.755c3.57,4.116,3.126,10.347-0.99,13.917L286.428,907.77C282.311,911.34,276.081,910.896,272.511,906.78z"/>
		
			<rect x="238.469" y="-274" transform="matrix(0.7555 -0.6551 0.6551 0.7555 157.2397 276.3973)" style="opacity:0.15;clip-path:url(#SVGID_00000040563304286029562530000005330709432901922479_);fill:#AED1EF;" width="420.923" height="403.066"/>
		<path style="clip-path:url(#SVGID_00000040563304286029562530000005330709432901922479_);fill:#AED1EF;" d="M56.576,357.584
			l-70.691-70.691c-0.934-0.934-0.934-2.449,0-3.383l70.691-70.691c0.934-0.934,2.449-0.934,3.383,0l70.691,70.691
			c0.934,0.934,0.934,2.449,0,3.383l-70.691,70.691C59.025,358.518,57.51,358.518,56.576,357.584z"/>
		<path style="clip-path:url(#SVGID_00000040563304286029562530000005330709432901922479_);fill:#B4D667;" d="M160.437,69.999
			L38.086-16.276c-1.617-1.14-2.003-3.375-0.863-4.992l86.275-122.351c1.14-1.617,3.375-2.004,4.992-0.863L250.84-58.208
			c1.617,1.14,2.004,3.375,0.863,4.992L165.429,69.135C164.289,70.752,162.054,71.139,160.437,69.999z"/>
		<path style="clip-path:url(#SVGID_00000040563304286029562530000005330709432901922479_);fill:#B4D667;" d="M584.857,701.192
			L478.605,550.084c-1.404-1.997-0.924-4.754,1.073-6.158l151.107-106.252c1.997-1.404,4.754-0.924,6.158,1.073l106.252,151.107
			c1.404,1.997,0.924,4.754-1.073,6.158L591.015,702.265C589.018,703.669,586.261,703.189,584.857,701.192z"/>
		<g style="clip-path:url(#SVGID_00000040563304286029562530000005330709432901922479_);">
			<g>
				<path style="fill:#AED1EF;" d="M616.906,274.096c-0.208,1.127-1.29,1.872-2.417,1.664c-1.127-0.208-1.872-1.29-1.664-2.417
					c0.208-1.127,1.29-1.872,2.417-1.664C616.369,271.887,617.114,272.969,616.906,274.096z"/>
				<path style="fill:#AED1EF;" d="M632.969,274.096c-0.208,1.127-1.29,1.872-2.417,1.664c-1.127-0.208-1.872-1.29-1.664-2.417
					c0.208-1.127,1.29-1.872,2.417-1.664C632.431,271.887,633.176,272.969,632.969,274.096z"/>
				<path style="fill:#AED1EF;" d="M649.031,274.096c-0.208,1.127-1.29,1.872-2.417,1.664c-1.127-0.208-1.872-1.29-1.664-2.417
					c0.208-1.127,1.29-1.872,2.417-1.664C648.494,271.887,649.239,272.969,649.031,274.096z"/>
				<path style="fill:#AED1EF;" d="M665.093,274.096c-0.208,1.127-1.29,1.872-2.417,1.664c-1.127-0.208-1.872-1.29-1.664-2.417
					c0.208-1.127,1.29-1.872,2.417-1.664C664.556,271.887,665.301,272.969,665.093,274.096z"/>
				<path style="fill:#AED1EF;" d="M681.155,274.096c-0.208,1.127-1.29,1.872-2.417,1.664c-1.127-0.208-1.872-1.29-1.664-2.417
					c0.208-1.127,1.29-1.872,2.417-1.664C680.618,271.887,681.363,272.969,681.155,274.096z"/>
			</g>
			<g>
				<path style="fill:#AED1EF;" d="M616.906,287.626c-0.208,1.127-1.29,1.872-2.417,1.664c-1.127-0.208-1.872-1.29-1.664-2.417
					c0.208-1.127,1.29-1.872,2.417-1.664C616.369,285.417,617.114,286.499,616.906,287.626z"/>
				<path style="fill:#AED1EF;" d="M632.969,287.626c-0.208,1.127-1.29,1.872-2.417,1.664c-1.127-0.208-1.872-1.29-1.664-2.417
					c0.208-1.127,1.29-1.872,2.417-1.664C632.431,285.417,633.176,286.499,632.969,287.626z"/>
				<path style="fill:#AED1EF;" d="M649.031,287.626c-0.208,1.127-1.29,1.872-2.417,1.664c-1.127-0.208-1.872-1.29-1.664-2.417
					c0.208-1.127,1.29-1.872,2.417-1.664C648.494,285.417,649.239,286.499,649.031,287.626z"/>
				<path style="fill:#AED1EF;" d="M665.093,287.626c-0.208,1.127-1.29,1.872-2.417,1.664c-1.127-0.208-1.872-1.29-1.664-2.417
					c0.208-1.127,1.29-1.872,2.417-1.664C664.556,285.417,665.301,286.499,665.093,287.626z"/>
				<path style="fill:#AED1EF;" d="M681.155,287.626c-0.208,1.127-1.29,1.872-2.417,1.664c-1.127-0.208-1.872-1.29-1.664-2.417
					c0.208-1.127,1.29-1.872,2.417-1.664C680.618,285.417,681.363,286.499,681.155,287.626z"/>
			</g>
			<g>
				<path style="fill:#AED1EF;" d="M616.906,301.156c-0.208,1.127-1.29,1.872-2.417,1.664c-1.127-0.208-1.872-1.29-1.664-2.417
					c0.208-1.127,1.29-1.872,2.417-1.664C616.369,298.948,617.114,300.03,616.906,301.156z"/>
				<path style="fill:#AED1EF;" d="M632.969,301.156c-0.208,1.127-1.29,1.872-2.417,1.664c-1.127-0.208-1.872-1.29-1.664-2.417
					c0.208-1.127,1.29-1.872,2.417-1.664C632.431,298.948,633.176,300.03,632.969,301.156z"/>
				<path style="fill:#AED1EF;" d="M649.031,301.156c-0.208,1.127-1.29,1.872-2.417,1.664c-1.127-0.208-1.872-1.29-1.664-2.417
					c0.208-1.127,1.29-1.872,2.417-1.664C648.494,298.948,649.239,300.03,649.031,301.156z"/>
				<path style="fill:#AED1EF;" d="M665.093,301.156c-0.208,1.127-1.29,1.872-2.417,1.664c-1.127-0.208-1.872-1.29-1.664-2.417
					c0.208-1.127,1.29-1.872,2.417-1.664C664.556,298.948,665.301,300.03,665.093,301.156z"/>
				<path style="fill:#AED1EF;" d="M681.155,301.156c-0.208,1.127-1.29,1.872-2.417,1.664c-1.127-0.208-1.872-1.29-1.664-2.417
					c0.208-1.127,1.29-1.872,2.417-1.664C680.618,298.948,681.363,300.03,681.155,301.156z"/>
			</g>
			<g>
				<path style="fill:#AED1EF;" d="M616.906,314.687c-0.208,1.127-1.29,1.872-2.417,1.664c-1.127-0.208-1.872-1.29-1.664-2.417
					c0.208-1.127,1.29-1.872,2.417-1.664C616.369,312.478,617.114,313.56,616.906,314.687z"/>
				<path style="fill:#AED1EF;" d="M632.969,314.687c-0.208,1.127-1.29,1.872-2.417,1.664c-1.127-0.208-1.872-1.29-1.664-2.417
					c0.208-1.127,1.29-1.872,2.417-1.664C632.431,312.478,633.176,313.56,632.969,314.687z"/>
				<path style="fill:#AED1EF;" d="M649.031,314.687c-0.208,1.127-1.29,1.872-2.417,1.664c-1.127-0.208-1.872-1.29-1.664-2.417
					c0.208-1.127,1.29-1.872,2.417-1.664C648.494,312.478,649.239,313.56,649.031,314.687z"/>
				<path style="fill:#AED1EF;" d="M665.093,314.687c-0.208,1.127-1.29,1.872-2.417,1.664c-1.127-0.208-1.872-1.29-1.664-2.417
					c0.208-1.127,1.29-1.872,2.417-1.664C664.556,312.478,665.301,313.56,665.093,314.687z"/>
				<path style="fill:#AED1EF;" d="M681.155,314.687c-0.208,1.127-1.29,1.872-2.417,1.664c-1.127-0.208-1.872-1.29-1.664-2.417
					c0.208-1.127,1.29-1.872,2.417-1.664C680.618,312.478,681.363,313.56,681.155,314.687z"/>
			</g>
			<g>
				<path style="fill:#AED1EF;" d="M616.906,328.217c-0.208,1.127-1.29,1.872-2.417,1.664c-1.127-0.208-1.872-1.29-1.664-2.417
					c0.208-1.127,1.29-1.872,2.417-1.664C616.369,326.008,617.114,327.09,616.906,328.217z"/>
				<path style="fill:#AED1EF;" d="M632.969,328.217c-0.208,1.127-1.29,1.872-2.417,1.664c-1.127-0.208-1.872-1.29-1.664-2.417
					c0.208-1.127,1.29-1.872,2.417-1.664C632.431,326.008,633.176,327.09,632.969,328.217z"/>
				<path style="fill:#AED1EF;" d="M649.031,328.217c-0.208,1.127-1.29,1.872-2.417,1.664c-1.127-0.208-1.872-1.29-1.664-2.417
					c0.208-1.127,1.29-1.872,2.417-1.664C648.494,326.008,649.239,327.09,649.031,328.217z"/>
				<path style="fill:#AED1EF;" d="M665.093,328.217c-0.208,1.127-1.29,1.872-2.417,1.664c-1.127-0.208-1.872-1.29-1.664-2.417
					c0.208-1.127,1.29-1.872,2.417-1.664C664.556,326.008,665.301,327.09,665.093,328.217z"/>
				<path style="fill:#AED1EF;" d="M681.155,328.217c-0.208,1.127-1.29,1.872-2.417,1.664c-1.127-0.208-1.872-1.29-1.664-2.417
					c0.208-1.127,1.29-1.872,2.417-1.664C680.618,326.008,681.363,327.09,681.155,328.217z"/>
			</g>
			<g>
				<path style="fill:#AED1EF;" d="M616.906,341.747c-0.208,1.127-1.29,1.872-2.417,1.664c-1.127-0.208-1.872-1.29-1.664-2.417
					c0.208-1.127,1.29-1.872,2.417-1.664C616.369,339.538,617.114,340.62,616.906,341.747z"/>
				<path style="fill:#AED1EF;" d="M632.969,341.747c-0.208,1.127-1.29,1.872-2.417,1.664c-1.127-0.208-1.872-1.29-1.664-2.417
					c0.208-1.127,1.29-1.872,2.417-1.664C632.431,339.538,633.176,340.62,632.969,341.747z"/>
				<path style="fill:#AED1EF;" d="M649.031,341.747c-0.208,1.127-1.29,1.872-2.417,1.664c-1.127-0.208-1.872-1.29-1.664-2.417
					c0.208-1.127,1.29-1.872,2.417-1.664C648.494,339.538,649.239,340.62,649.031,341.747z"/>
				<path style="fill:#AED1EF;" d="M665.093,341.747c-0.208,1.127-1.29,1.872-2.417,1.664c-1.127-0.208-1.872-1.29-1.664-2.417
					c0.208-1.127,1.29-1.872,2.417-1.664C664.556,339.538,665.301,340.62,665.093,341.747z"/>
				<path style="fill:#AED1EF;" d="M681.155,341.747c-0.208,1.127-1.29,1.872-2.417,1.664c-1.127-0.208-1.872-1.29-1.664-2.417
					c0.208-1.127,1.29-1.872,2.417-1.664C680.618,339.538,681.363,340.62,681.155,341.747z"/>
			</g>
			<g>
				<path style="fill:#AED1EF;" d="M616.906,355.277c-0.208,1.127-1.29,1.872-2.417,1.664c-1.127-0.208-1.872-1.29-1.664-2.417
					c0.208-1.127,1.29-1.872,2.417-1.664C616.369,353.068,617.114,354.15,616.906,355.277z"/>
				<path style="fill:#AED1EF;" d="M632.969,355.277c-0.208,1.127-1.29,1.872-2.417,1.664c-1.127-0.208-1.872-1.29-1.664-2.417
					c0.208-1.127,1.29-1.872,2.417-1.664C632.431,353.068,633.176,354.15,632.969,355.277z"/>
				<path style="fill:#AED1EF;" d="M649.031,355.277c-0.208,1.127-1.29,1.872-2.417,1.664c-1.127-0.208-1.872-1.29-1.664-2.417
					c0.208-1.127,1.29-1.872,2.417-1.664C648.494,353.068,649.239,354.15,649.031,355.277z"/>
				<path style="fill:#AED1EF;" d="M665.093,355.277c-0.208,1.127-1.29,1.872-2.417,1.664c-1.127-0.208-1.872-1.29-1.664-2.417
					c0.208-1.127,1.29-1.872,2.417-1.664C664.556,353.068,665.301,354.15,665.093,355.277z"/>
				<path style="fill:#AED1EF;" d="M681.155,355.277c-0.208,1.127-1.29,1.872-2.417,1.664c-1.127-0.208-1.872-1.29-1.664-2.417
					c0.208-1.127,1.29-1.872,2.417-1.664C680.618,353.068,681.363,354.15,681.155,355.277z"/>
			</g>
			<g>
				<path style="fill:#AED1EF;" d="M616.906,368.807c-0.208,1.127-1.29,1.872-2.417,1.664c-1.127-0.208-1.872-1.29-1.664-2.417
					c0.208-1.127,1.29-1.872,2.417-1.664C616.369,366.599,617.114,367.681,616.906,368.807z"/>
				<path style="fill:#AED1EF;" d="M632.969,368.807c-0.208,1.127-1.29,1.872-2.417,1.664c-1.127-0.208-1.872-1.29-1.664-2.417
					c0.208-1.127,1.29-1.872,2.417-1.664C632.431,366.599,633.176,367.681,632.969,368.807z"/>
				<path style="fill:#AED1EF;" d="M649.031,368.807c-0.208,1.127-1.29,1.872-2.417,1.664c-1.127-0.208-1.872-1.29-1.664-2.417
					c0.208-1.127,1.29-1.872,2.417-1.664C648.494,366.599,649.239,367.681,649.031,368.807z"/>
				<path style="fill:#AED1EF;" d="M665.093,368.807c-0.208,1.127-1.29,1.872-2.417,1.664c-1.127-0.208-1.872-1.29-1.664-2.417
					c0.208-1.127,1.29-1.872,2.417-1.664C664.556,366.599,665.301,367.681,665.093,368.807z"/>
				<path style="fill:#AED1EF;" d="M681.155,368.807c-0.208,1.127-1.29,1.872-2.417,1.664c-1.127-0.208-1.872-1.29-1.664-2.417
					c0.208-1.127,1.29-1.872,2.417-1.664C680.618,366.599,681.363,367.681,681.155,368.807z"/>
			</g>
			<g>
				<path style="fill:#AED1EF;" d="M616.906,382.338c-0.208,1.127-1.29,1.872-2.417,1.664c-1.127-0.208-1.872-1.29-1.664-2.417
					c0.208-1.127,1.29-1.872,2.417-1.664C616.369,380.129,617.114,381.211,616.906,382.338z"/>
				<path style="fill:#AED1EF;" d="M632.969,382.338c-0.208,1.127-1.29,1.872-2.417,1.664c-1.127-0.208-1.872-1.29-1.664-2.417
					c0.208-1.127,1.29-1.872,2.417-1.664C632.431,380.129,633.176,381.211,632.969,382.338z"/>
				<path style="fill:#AED1EF;" d="M649.031,382.338c-0.208,1.127-1.29,1.872-2.417,1.664c-1.127-0.208-1.872-1.29-1.664-2.417
					c0.208-1.127,1.29-1.872,2.417-1.664C648.494,380.129,649.239,381.211,649.031,382.338z"/>
				<path style="fill:#AED1EF;" d="M665.093,382.338c-0.208,1.127-1.29,1.872-2.417,1.664c-1.127-0.208-1.872-1.29-1.664-2.417
					c0.208-1.127,1.29-1.872,2.417-1.664C664.556,380.129,665.301,381.211,665.093,382.338z"/>
				<path style="fill:#AED1EF;" d="M681.155,382.338c-0.208,1.127-1.29,1.872-2.417,1.664c-1.127-0.208-1.872-1.29-1.664-2.417
					c0.208-1.127,1.29-1.872,2.417-1.664C680.618,380.129,681.363,381.211,681.155,382.338z"/>
			</g>
			<g>
				<path style="fill:#AED1EF;" d="M616.906,395.868c-0.208,1.127-1.29,1.872-2.417,1.664c-1.127-0.208-1.872-1.29-1.664-2.417
					c0.208-1.127,1.29-1.872,2.417-1.664C616.369,393.659,617.114,394.741,616.906,395.868z"/>
				<path style="fill:#AED1EF;" d="M632.969,395.868c-0.208,1.127-1.29,1.872-2.417,1.664c-1.127-0.208-1.872-1.29-1.664-2.417
					c0.208-1.127,1.29-1.872,2.417-1.664C632.431,393.659,633.176,394.741,632.969,395.868z"/>
				<path style="fill:#AED1EF;" d="M649.031,395.868c-0.208,1.127-1.29,1.872-2.417,1.664c-1.127-0.208-1.872-1.29-1.664-2.417
					c0.208-1.127,1.29-1.872,2.417-1.664C648.494,393.659,649.239,394.741,649.031,395.868z"/>
				<path style="fill:#AED1EF;" d="M665.093,395.868c-0.208,1.127-1.29,1.872-2.417,1.664c-1.127-0.208-1.872-1.29-1.664-2.417
					c0.208-1.127,1.29-1.872,2.417-1.664C664.556,393.659,665.301,394.741,665.093,395.868z"/>
				<path style="fill:#AED1EF;" d="M681.155,395.868c-0.208,1.127-1.29,1.872-2.417,1.664c-1.127-0.208-1.872-1.29-1.664-2.417
					c0.208-1.127,1.29-1.872,2.417-1.664C680.618,393.659,681.363,394.741,681.155,395.868z"/>
			</g>
			<g>
				<path style="fill:#AED1EF;" d="M616.906,409.398c-0.208,1.127-1.29,1.872-2.417,1.664c-1.127-0.208-1.872-1.29-1.664-2.417
					c0.208-1.127,1.29-1.872,2.417-1.664C616.369,407.189,617.114,408.271,616.906,409.398z"/>
				<path style="fill:#AED1EF;" d="M632.969,409.398c-0.208,1.127-1.29,1.872-2.417,1.664c-1.127-0.208-1.872-1.29-1.664-2.417
					c0.208-1.127,1.29-1.872,2.417-1.664C632.431,407.189,633.176,408.271,632.969,409.398z"/>
				<path style="fill:#AED1EF;" d="M649.031,409.398c-0.208,1.127-1.29,1.872-2.417,1.664c-1.127-0.208-1.872-1.29-1.664-2.417
					c0.208-1.127,1.29-1.872,2.417-1.664C648.494,407.189,649.239,408.271,649.031,409.398z"/>
				<path style="fill:#AED1EF;" d="M665.093,409.398c-0.208,1.127-1.29,1.872-2.417,1.664c-1.127-0.208-1.872-1.29-1.664-2.417
					c0.208-1.127,1.29-1.872,2.417-1.664C664.556,407.189,665.301,408.271,665.093,409.398z"/>
				<path style="fill:#AED1EF;" d="M681.155,409.398c-0.208,1.127-1.29,1.872-2.417,1.664c-1.127-0.208-1.872-1.29-1.664-2.417
					c0.208-1.127,1.29-1.872,2.417-1.664C680.618,407.189,681.363,408.271,681.155,409.398z"/>
			</g>
		</g>
		<g style="clip-path:url(#SVGID_00000040563304286029562530000005330709432901922479_);">
			<g>
				<path style="fill:#AED1EF;" d="M50.908,41.952c-0.208,1.127-1.29,1.872-2.417,1.664c-1.127-0.208-1.872-1.29-1.664-2.417
					c0.208-1.127,1.29-1.872,2.417-1.664C50.371,39.743,51.116,40.825,50.908,41.952z"/>
				<path style="fill:#AED1EF;" d="M66.97,41.952c-0.208,1.127-1.29,1.872-2.417,1.664c-1.127-0.208-1.872-1.29-1.664-2.417
					c0.208-1.127,1.29-1.872,2.417-1.664C66.433,39.743,67.178,40.825,66.97,41.952z"/>
				<path style="fill:#AED1EF;" d="M83.032,41.952c-0.208,1.127-1.29,1.872-2.417,1.664c-1.127-0.208-1.872-1.29-1.664-2.417
					c0.208-1.127,1.29-1.872,2.417-1.664C82.495,39.743,83.24,40.825,83.032,41.952z"/>
				<path style="fill:#AED1EF;" d="M99.094,41.952c-0.208,1.127-1.29,1.872-2.417,1.664c-1.127-0.208-1.872-1.29-1.664-2.417
					c0.208-1.127,1.29-1.872,2.417-1.664C98.557,39.743,99.302,40.825,99.094,41.952z"/>
				<path style="fill:#AED1EF;" d="M115.157,41.952c-0.208,1.127-1.29,1.872-2.417,1.664c-1.127-0.208-1.872-1.29-1.664-2.417
					c0.208-1.127,1.29-1.872,2.417-1.664C114.62,39.743,115.365,40.825,115.157,41.952z"/>
			</g>
			<g>
				<path style="fill:#AED1EF;" d="M50.908,55.482c-0.208,1.127-1.29,1.872-2.417,1.664c-1.127-0.208-1.872-1.29-1.664-2.417
					c0.208-1.127,1.29-1.872,2.417-1.664C50.371,53.274,51.116,54.355,50.908,55.482z"/>
				<path style="fill:#AED1EF;" d="M66.97,55.482c-0.208,1.127-1.29,1.872-2.417,1.664c-1.127-0.208-1.872-1.29-1.664-2.417
					c0.208-1.127,1.29-1.872,2.417-1.664C66.433,53.274,67.178,54.355,66.97,55.482z"/>
				<path style="fill:#AED1EF;" d="M83.032,55.482c-0.208,1.127-1.29,1.872-2.417,1.664c-1.127-0.208-1.872-1.29-1.664-2.417
					s1.29-1.872,2.417-1.664C82.495,53.274,83.24,54.355,83.032,55.482z"/>
				<path style="fill:#AED1EF;" d="M99.094,55.482c-0.208,1.127-1.29,1.872-2.417,1.664c-1.127-0.208-1.872-1.29-1.664-2.417
					s1.29-1.872,2.417-1.664C98.557,53.274,99.302,54.355,99.094,55.482z"/>
				<path style="fill:#AED1EF;" d="M115.157,55.482c-0.208,1.127-1.29,1.872-2.417,1.664c-1.127-0.208-1.872-1.29-1.664-2.417
					c0.208-1.127,1.29-1.872,2.417-1.664C114.62,53.274,115.365,54.355,115.157,55.482z"/>
			</g>
			<g>
				<path style="fill:#AED1EF;" d="M50.908,69.013c-0.208,1.127-1.29,1.872-2.417,1.664c-1.127-0.208-1.872-1.29-1.664-2.417
					c0.208-1.127,1.29-1.872,2.417-1.664C50.371,66.804,51.116,67.886,50.908,69.013z"/>
				<path style="fill:#AED1EF;" d="M66.97,69.013c-0.208,1.127-1.29,1.872-2.417,1.664c-1.127-0.208-1.872-1.29-1.664-2.417
					c0.208-1.127,1.29-1.872,2.417-1.664C66.433,66.804,67.178,67.886,66.97,69.013z"/>
				<path style="fill:#AED1EF;" d="M83.032,69.013c-0.208,1.127-1.29,1.872-2.417,1.664c-1.127-0.208-1.872-1.29-1.664-2.417
					c0.208-1.127,1.29-1.872,2.417-1.664C82.495,66.804,83.24,67.886,83.032,69.013z"/>
				<path style="fill:#AED1EF;" d="M99.094,69.013c-0.208,1.127-1.29,1.872-2.417,1.664c-1.127-0.208-1.872-1.29-1.664-2.417
					c0.208-1.127,1.29-1.872,2.417-1.664C98.557,66.804,99.302,67.886,99.094,69.013z"/>
				<path style="fill:#AED1EF;" d="M115.157,69.013c-0.208,1.127-1.29,1.872-2.417,1.664c-1.127-0.208-1.872-1.29-1.664-2.417
					c0.208-1.127,1.29-1.872,2.417-1.664C114.62,66.804,115.365,67.886,115.157,69.013z"/>
			</g>
			<g>
				<path style="fill:#AED1EF;" d="M50.908,82.543c-0.208,1.127-1.29,1.872-2.417,1.664c-1.127-0.208-1.872-1.29-1.664-2.417
					c0.208-1.127,1.29-1.872,2.417-1.664C50.371,80.334,51.116,81.416,50.908,82.543z"/>
				<path style="fill:#AED1EF;" d="M66.97,82.543c-0.208,1.127-1.29,1.872-2.417,1.664c-1.127-0.208-1.872-1.29-1.664-2.417
					c0.208-1.127,1.29-1.872,2.417-1.664C66.433,80.334,67.178,81.416,66.97,82.543z"/>
				<path style="fill:#AED1EF;" d="M83.032,82.543c-0.208,1.127-1.29,1.872-2.417,1.664c-1.127-0.208-1.872-1.29-1.664-2.417
					c0.208-1.127,1.29-1.872,2.417-1.664C82.495,80.334,83.24,81.416,83.032,82.543z"/>
				<path style="fill:#AED1EF;" d="M99.094,82.543c-0.208,1.127-1.29,1.872-2.417,1.664c-1.127-0.208-1.872-1.29-1.664-2.417
					c0.208-1.127,1.29-1.872,2.417-1.664C98.557,80.334,99.302,81.416,99.094,82.543z"/>
				<path style="fill:#AED1EF;" d="M115.157,82.543c-0.208,1.127-1.29,1.872-2.417,1.664c-1.127-0.208-1.872-1.29-1.664-2.417
					c0.208-1.127,1.29-1.872,2.417-1.664C114.62,80.334,115.365,81.416,115.157,82.543z"/>
			</g>
			<g>
				<path style="fill:#AED1EF;" d="M50.908,96.073c-0.208,1.127-1.29,1.872-2.417,1.664c-1.127-0.208-1.872-1.29-1.664-2.417
					c0.208-1.127,1.29-1.872,2.417-1.664C50.371,93.864,51.116,94.946,50.908,96.073z"/>
				<path style="fill:#AED1EF;" d="M66.97,96.073c-0.208,1.127-1.29,1.872-2.417,1.664s-1.872-1.29-1.664-2.417
					c0.208-1.127,1.29-1.872,2.417-1.664C66.433,93.864,67.178,94.946,66.97,96.073z"/>
				<path style="fill:#AED1EF;" d="M83.032,96.073c-0.208,1.127-1.29,1.872-2.417,1.664s-1.872-1.29-1.664-2.417
					c0.208-1.127,1.29-1.872,2.417-1.664C82.495,93.864,83.24,94.946,83.032,96.073z"/>
				<path style="fill:#AED1EF;" d="M99.094,96.073c-0.208,1.127-1.29,1.872-2.417,1.664s-1.872-1.29-1.664-2.417
					c0.208-1.127,1.29-1.872,2.417-1.664C98.557,93.864,99.302,94.946,99.094,96.073z"/>
				<path style="fill:#AED1EF;" d="M115.157,96.073c-0.208,1.127-1.29,1.872-2.417,1.664c-1.127-0.208-1.872-1.29-1.664-2.417
					c0.208-1.127,1.29-1.872,2.417-1.664C114.62,93.864,115.365,94.946,115.157,96.073z"/>
			</g>
			<g>
				<path style="fill:#AED1EF;" d="M50.908,109.603c-0.208,1.127-1.29,1.872-2.417,1.664c-1.127-0.208-1.872-1.29-1.664-2.417
					c0.208-1.127,1.29-1.872,2.417-1.664C50.371,107.394,51.116,108.476,50.908,109.603z"/>
				<path style="fill:#AED1EF;" d="M66.97,109.603c-0.208,1.127-1.29,1.872-2.417,1.664s-1.872-1.29-1.664-2.417
					c0.208-1.127,1.29-1.872,2.417-1.664C66.433,107.394,67.178,108.476,66.97,109.603z"/>
				<path style="fill:#AED1EF;" d="M83.032,109.603c-0.208,1.127-1.29,1.872-2.417,1.664s-1.872-1.29-1.664-2.417
					s1.29-1.872,2.417-1.664C82.495,107.394,83.24,108.476,83.032,109.603z"/>
				<path style="fill:#AED1EF;" d="M99.094,109.603c-0.208,1.127-1.29,1.872-2.417,1.664s-1.872-1.29-1.664-2.417
					s1.29-1.872,2.417-1.664C98.557,107.394,99.302,108.476,99.094,109.603z"/>
				<path style="fill:#AED1EF;" d="M115.157,109.603c-0.208,1.127-1.29,1.872-2.417,1.664c-1.127-0.208-1.872-1.29-1.664-2.417
					c0.208-1.127,1.29-1.872,2.417-1.664C114.62,107.394,115.365,108.476,115.157,109.603z"/>
			</g>
			<g>
				<path style="fill:#AED1EF;" d="M50.908,123.133c-0.208,1.127-1.29,1.872-2.417,1.664c-1.127-0.208-1.872-1.29-1.664-2.417
					c0.208-1.127,1.29-1.872,2.417-1.664C50.371,120.925,51.116,122.007,50.908,123.133z"/>
				<path style="fill:#AED1EF;" d="M66.97,123.133c-0.208,1.127-1.29,1.872-2.417,1.664c-1.127-0.208-1.872-1.29-1.664-2.417
					c0.208-1.127,1.29-1.872,2.417-1.664C66.433,120.925,67.178,122.007,66.97,123.133z"/>
				<path style="fill:#AED1EF;" d="M83.032,123.133c-0.208,1.127-1.29,1.872-2.417,1.664c-1.127-0.208-1.872-1.29-1.664-2.417
					s1.29-1.872,2.417-1.664C82.495,120.925,83.24,122.007,83.032,123.133z"/>
				<path style="fill:#AED1EF;" d="M99.094,123.133c-0.208,1.127-1.29,1.872-2.417,1.664c-1.127-0.208-1.872-1.29-1.664-2.417
					s1.29-1.872,2.417-1.664C98.557,120.925,99.302,122.007,99.094,123.133z"/>
				<path style="fill:#AED1EF;" d="M115.157,123.133c-0.208,1.127-1.29,1.872-2.417,1.664c-1.127-0.208-1.872-1.29-1.664-2.417
					c0.208-1.127,1.29-1.872,2.417-1.664C114.62,120.925,115.365,122.007,115.157,123.133z"/>
			</g>
			<g>
				<path style="fill:#AED1EF;" d="M50.908,136.664c-0.208,1.127-1.29,1.872-2.417,1.664c-1.127-0.208-1.872-1.29-1.664-2.417
					c0.208-1.127,1.29-1.872,2.417-1.664C50.371,134.455,51.116,135.537,50.908,136.664z"/>
				<path style="fill:#AED1EF;" d="M66.97,136.664c-0.208,1.127-1.29,1.872-2.417,1.664c-1.127-0.208-1.872-1.29-1.664-2.417
					c0.208-1.127,1.29-1.872,2.417-1.664C66.433,134.455,67.178,135.537,66.97,136.664z"/>
				<path style="fill:#AED1EF;" d="M83.032,136.664c-0.208,1.127-1.29,1.872-2.417,1.664c-1.127-0.208-1.872-1.29-1.664-2.417
					s1.29-1.872,2.417-1.664C82.495,134.455,83.24,135.537,83.032,136.664z"/>
				<path style="fill:#AED1EF;" d="M99.094,136.664c-0.208,1.127-1.29,1.872-2.417,1.664c-1.127-0.208-1.872-1.29-1.664-2.417
					s1.29-1.872,2.417-1.664C98.557,134.455,99.302,135.537,99.094,136.664z"/>
				<path style="fill:#AED1EF;" d="M115.157,136.664c-0.208,1.127-1.29,1.872-2.417,1.664c-1.127-0.208-1.872-1.29-1.664-2.417
					c0.208-1.127,1.29-1.872,2.417-1.664C114.62,134.455,115.365,135.537,115.157,136.664z"/>
			</g>
			<g>
				<path style="fill:#AED1EF;" d="M50.908,150.194c-0.208,1.127-1.29,1.872-2.417,1.664c-1.127-0.208-1.872-1.29-1.664-2.417
					c0.208-1.127,1.29-1.872,2.417-1.664C50.371,147.985,51.116,149.067,50.908,150.194z"/>
				<path style="fill:#AED1EF;" d="M66.97,150.194c-0.208,1.127-1.29,1.872-2.417,1.664c-1.127-0.208-1.872-1.29-1.664-2.417
					c0.208-1.127,1.29-1.872,2.417-1.664C66.433,147.985,67.178,149.067,66.97,150.194z"/>
				<path style="fill:#AED1EF;" d="M83.032,150.194c-0.208,1.127-1.29,1.872-2.417,1.664c-1.127-0.208-1.872-1.29-1.664-2.417
					s1.29-1.872,2.417-1.664C82.495,147.985,83.24,149.067,83.032,150.194z"/>
				<path style="fill:#AED1EF;" d="M99.094,150.194c-0.208,1.127-1.29,1.872-2.417,1.664c-1.127-0.208-1.872-1.29-1.664-2.417
					s1.29-1.872,2.417-1.664C98.557,147.985,99.302,149.067,99.094,150.194z"/>
				<path style="fill:#AED1EF;" d="M115.157,150.194c-0.208,1.127-1.29,1.872-2.417,1.664c-1.127-0.208-1.872-1.29-1.664-2.417
					c0.208-1.127,1.29-1.872,2.417-1.664C114.62,147.985,115.365,149.067,115.157,150.194z"/>
			</g>
			<g>
				<path style="fill:#AED1EF;" d="M50.908,163.724c-0.208,1.127-1.29,1.872-2.417,1.664c-1.127-0.208-1.872-1.29-1.664-2.417
					c0.208-1.127,1.29-1.872,2.417-1.664C50.371,161.515,51.116,162.597,50.908,163.724z"/>
				<path style="fill:#AED1EF;" d="M66.97,163.724c-0.208,1.127-1.29,1.872-2.417,1.664c-1.127-0.208-1.872-1.29-1.664-2.417
					c0.208-1.127,1.29-1.872,2.417-1.664C66.433,161.515,67.178,162.597,66.97,163.724z"/>
				<path style="fill:#AED1EF;" d="M83.032,163.724c-0.208,1.127-1.29,1.872-2.417,1.664c-1.127-0.208-1.872-1.29-1.664-2.417
					s1.29-1.872,2.417-1.664C82.495,161.515,83.24,162.597,83.032,163.724z"/>
				<path style="fill:#AED1EF;" d="M99.094,163.724c-0.208,1.127-1.29,1.872-2.417,1.664c-1.127-0.208-1.872-1.29-1.664-2.417
					s1.29-1.872,2.417-1.664C98.557,161.515,99.302,162.597,99.094,163.724z"/>
				<path style="fill:#AED1EF;" d="M115.157,163.724c-0.208,1.127-1.29,1.872-2.417,1.664c-1.127-0.208-1.872-1.29-1.664-2.417
					c0.208-1.127,1.29-1.872,2.417-1.664C114.62,161.515,115.365,162.597,115.157,163.724z"/>
			</g>
			<g>
				<path style="fill:#AED1EF;" d="M50.908,177.254c-0.208,1.127-1.29,1.872-2.417,1.664c-1.127-0.208-1.872-1.29-1.664-2.417
					c0.208-1.127,1.29-1.872,2.417-1.664C50.371,175.045,51.116,176.127,50.908,177.254z"/>
				<path style="fill:#AED1EF;" d="M66.97,177.254c-0.208,1.127-1.29,1.872-2.417,1.664c-1.127-0.208-1.872-1.29-1.664-2.417
					c0.208-1.127,1.29-1.872,2.417-1.664C66.433,175.045,67.178,176.127,66.97,177.254z"/>
				<path style="fill:#AED1EF;" d="M83.032,177.254c-0.208,1.127-1.29,1.872-2.417,1.664c-1.127-0.208-1.872-1.29-1.664-2.417
					s1.29-1.872,2.417-1.664C82.495,175.045,83.24,176.127,83.032,177.254z"/>
				<path style="fill:#AED1EF;" d="M99.094,177.254c-0.208,1.127-1.29,1.872-2.417,1.664c-1.127-0.208-1.872-1.29-1.664-2.417
					s1.29-1.872,2.417-1.664C98.557,175.045,99.302,176.127,99.094,177.254z"/>
				<path style="fill:#AED1EF;" d="M115.157,177.254c-0.208,1.127-1.29,1.872-2.417,1.664c-1.127-0.208-1.872-1.29-1.664-2.417
					c0.208-1.127,1.29-1.872,2.417-1.664C114.62,175.045,115.365,176.127,115.157,177.254z"/>
			</g>
		</g>
		<g style="clip-path:url(#SVGID_00000040563304286029562530000005330709432901922479_);">
			<g>
				<path style="fill:#AED1EF;" d="M432.284-67.275c-0.208,1.127-1.29,1.872-2.417,1.664c-1.127-0.208-1.872-1.29-1.664-2.417
					c0.208-1.127,1.29-1.872,2.417-1.664C431.747-69.483,432.492-68.401,432.284-67.275z"/>
				<path style="fill:#AED1EF;" d="M448.347-67.275c-0.208,1.127-1.29,1.872-2.417,1.664c-1.127-0.208-1.872-1.29-1.664-2.417
					c0.208-1.127,1.29-1.872,2.417-1.664C447.81-69.483,448.555-68.401,448.347-67.275z"/>
				<path style="fill:#AED1EF;" d="M464.409-67.275c-0.208,1.127-1.29,1.872-2.417,1.664c-1.127-0.208-1.872-1.29-1.664-2.417
					c0.208-1.127,1.29-1.872,2.417-1.664C463.872-69.483,464.617-68.401,464.409-67.275z"/>
				<path style="fill:#AED1EF;" d="M480.471-67.275c-0.208,1.127-1.29,1.872-2.417,1.664c-1.127-0.208-1.872-1.29-1.664-2.417
					c0.208-1.127,1.29-1.872,2.417-1.664C479.934-69.483,480.679-68.401,480.471-67.275z"/>
				<path style="fill:#AED1EF;" d="M496.534-67.275c-0.208,1.127-1.29,1.872-2.417,1.664c-1.127-0.208-1.872-1.29-1.664-2.417
					s1.29-1.872,2.417-1.664C495.996-69.483,496.741-68.401,496.534-67.275z"/>
			</g>
			<g>
				<path style="fill:#AED1EF;" d="M432.284-53.744c-0.208,1.127-1.29,1.872-2.417,1.664c-1.127-0.208-1.872-1.29-1.664-2.417
					c0.208-1.127,1.29-1.872,2.417-1.664C431.747-55.953,432.492-54.871,432.284-53.744z"/>
				<path style="fill:#AED1EF;" d="M448.347-53.744c-0.208,1.127-1.29,1.872-2.417,1.664c-1.127-0.208-1.872-1.29-1.664-2.417
					c0.208-1.127,1.29-1.872,2.417-1.664C447.81-55.953,448.555-54.871,448.347-53.744z"/>
				<path style="fill:#AED1EF;" d="M464.409-53.744c-0.208,1.127-1.29,1.872-2.417,1.664c-1.127-0.208-1.872-1.29-1.664-2.417
					c0.208-1.127,1.29-1.872,2.417-1.664C463.872-55.953,464.617-54.871,464.409-53.744z"/>
				<path style="fill:#AED1EF;" d="M480.471-53.744c-0.208,1.127-1.29,1.872-2.417,1.664c-1.127-0.208-1.872-1.29-1.664-2.417
					c0.208-1.127,1.29-1.872,2.417-1.664C479.934-55.953,480.679-54.871,480.471-53.744z"/>
				<path style="fill:#AED1EF;" d="M496.534-53.744c-0.208,1.127-1.29,1.872-2.417,1.664c-1.127-0.208-1.872-1.29-1.664-2.417
					s1.29-1.872,2.417-1.664C495.996-55.953,496.741-54.871,496.534-53.744z"/>
			</g>
			<g>
				<path style="fill:#AED1EF;" d="M432.284-40.214c-0.208,1.127-1.29,1.872-2.417,1.664c-1.127-0.208-1.872-1.29-1.664-2.417
					c0.208-1.127,1.29-1.872,2.417-1.664C431.747-42.423,432.492-41.341,432.284-40.214z"/>
				<path style="fill:#AED1EF;" d="M448.347-40.214c-0.208,1.127-1.29,1.872-2.417,1.664c-1.127-0.208-1.872-1.29-1.664-2.417
					c0.208-1.127,1.29-1.872,2.417-1.664C447.81-42.423,448.555-41.341,448.347-40.214z"/>
				<path style="fill:#AED1EF;" d="M464.409-40.214c-0.208,1.127-1.29,1.872-2.417,1.664c-1.127-0.208-1.872-1.29-1.664-2.417
					c0.208-1.127,1.29-1.872,2.417-1.664C463.872-42.423,464.617-41.341,464.409-40.214z"/>
				<path style="fill:#AED1EF;" d="M480.471-40.214c-0.208,1.127-1.29,1.872-2.417,1.664c-1.127-0.208-1.872-1.29-1.664-2.417
					c0.208-1.127,1.29-1.872,2.417-1.664C479.934-42.423,480.679-41.341,480.471-40.214z"/>
				<path style="fill:#AED1EF;" d="M496.534-40.214c-0.208,1.127-1.29,1.872-2.417,1.664c-1.127-0.208-1.872-1.29-1.664-2.417
					s1.29-1.872,2.417-1.664C495.996-42.423,496.741-41.341,496.534-40.214z"/>
			</g>
			<g>
				<path style="fill:#AED1EF;" d="M432.284-26.684c-0.208,1.127-1.29,1.872-2.417,1.664c-1.127-0.208-1.872-1.29-1.664-2.417
					c0.208-1.127,1.29-1.872,2.417-1.664C431.747-28.893,432.492-27.811,432.284-26.684z"/>
				<path style="fill:#AED1EF;" d="M448.347-26.684c-0.208,1.127-1.29,1.872-2.417,1.664c-1.127-0.208-1.872-1.29-1.664-2.417
					c0.208-1.127,1.29-1.872,2.417-1.664C447.81-28.893,448.555-27.811,448.347-26.684z"/>
				<path style="fill:#AED1EF;" d="M464.409-26.684c-0.208,1.127-1.29,1.872-2.417,1.664c-1.127-0.208-1.872-1.29-1.664-2.417
					c0.208-1.127,1.29-1.872,2.417-1.664C463.872-28.893,464.617-27.811,464.409-26.684z"/>
				<path style="fill:#AED1EF;" d="M480.471-26.684c-0.208,1.127-1.29,1.872-2.417,1.664c-1.127-0.208-1.872-1.29-1.664-2.417
					c0.208-1.127,1.29-1.872,2.417-1.664C479.934-28.893,480.679-27.811,480.471-26.684z"/>
				<path style="fill:#AED1EF;" d="M496.534-26.684c-0.208,1.127-1.29,1.872-2.417,1.664c-1.127-0.208-1.872-1.29-1.664-2.417
					s1.29-1.872,2.417-1.664C495.996-28.893,496.741-27.811,496.534-26.684z"/>
			</g>
			<g>
				<path style="fill:#AED1EF;" d="M432.284-13.154c-0.208,1.127-1.29,1.872-2.417,1.664c-1.127-0.208-1.872-1.29-1.664-2.417
					c0.208-1.127,1.29-1.872,2.417-1.664S432.492-14.281,432.284-13.154z"/>
				<path style="fill:#AED1EF;" d="M448.347-13.154c-0.208,1.127-1.29,1.872-2.417,1.664c-1.127-0.208-1.872-1.29-1.664-2.417
					c0.208-1.127,1.29-1.872,2.417-1.664S448.555-14.281,448.347-13.154z"/>
				<path style="fill:#AED1EF;" d="M464.409-13.154c-0.208,1.127-1.29,1.872-2.417,1.664c-1.127-0.208-1.872-1.29-1.664-2.417
					c0.208-1.127,1.29-1.872,2.417-1.664C463.872-15.363,464.617-14.281,464.409-13.154z"/>
				<path style="fill:#AED1EF;" d="M480.471-13.154c-0.208,1.127-1.29,1.872-2.417,1.664c-1.127-0.208-1.872-1.29-1.664-2.417
					c0.208-1.127,1.29-1.872,2.417-1.664C479.934-15.363,480.679-14.281,480.471-13.154z"/>
				<path style="fill:#AED1EF;" d="M496.534-13.154c-0.208,1.127-1.29,1.872-2.417,1.664c-1.127-0.208-1.872-1.29-1.664-2.417
					s1.29-1.872,2.417-1.664S496.741-14.281,496.534-13.154z"/>
			</g>
			<g>
				<path style="fill:#AED1EF;" d="M432.284,0.376c-0.208,1.127-1.29,1.872-2.417,1.664c-1.127-0.208-1.872-1.29-1.664-2.417
					c0.208-1.127,1.29-1.872,2.417-1.664S432.492-0.751,432.284,0.376z"/>
				<path style="fill:#AED1EF;" d="M448.347,0.376c-0.208,1.127-1.29,1.872-2.417,1.664c-1.127-0.208-1.872-1.29-1.664-2.417
					c0.208-1.127,1.29-1.872,2.417-1.664S448.555-0.751,448.347,0.376z"/>
				<path style="fill:#AED1EF;" d="M464.409,0.376c-0.208,1.127-1.29,1.872-2.417,1.664c-1.127-0.208-1.872-1.29-1.664-2.417
					c0.208-1.127,1.29-1.872,2.417-1.664C463.872-1.832,464.617-0.751,464.409,0.376z"/>
				<path style="fill:#AED1EF;" d="M480.471,0.376c-0.208,1.127-1.29,1.872-2.417,1.664c-1.127-0.208-1.872-1.29-1.664-2.417
					c0.208-1.127,1.29-1.872,2.417-1.664C479.934-1.832,480.679-0.751,480.471,0.376z"/>
				<path style="fill:#AED1EF;" d="M496.534,0.376c-0.208,1.127-1.29,1.872-2.417,1.664c-1.127-0.208-1.872-1.29-1.664-2.417
					s1.29-1.872,2.417-1.664S496.741-0.751,496.534,0.376z"/>
			</g>
			<g>
				<path style="fill:#AED1EF;" d="M432.284,13.907c-0.208,1.127-1.29,1.872-2.417,1.664c-1.127-0.208-1.872-1.29-1.664-2.417
					c0.208-1.127,1.29-1.872,2.417-1.664C431.747,11.698,432.492,12.78,432.284,13.907z"/>
				<path style="fill:#AED1EF;" d="M448.347,13.907c-0.208,1.127-1.29,1.872-2.417,1.664c-1.127-0.208-1.872-1.29-1.664-2.417
					c0.208-1.127,1.29-1.872,2.417-1.664C447.81,11.698,448.555,12.78,448.347,13.907z"/>
				<path style="fill:#AED1EF;" d="M464.409,13.907c-0.208,1.127-1.29,1.872-2.417,1.664c-1.127-0.208-1.872-1.29-1.664-2.417
					c0.208-1.127,1.29-1.872,2.417-1.664C463.872,11.698,464.617,12.78,464.409,13.907z"/>
				<path style="fill:#AED1EF;" d="M480.471,13.907c-0.208,1.127-1.29,1.872-2.417,1.664c-1.127-0.208-1.872-1.29-1.664-2.417
					c0.208-1.127,1.29-1.872,2.417-1.664C479.934,11.698,480.679,12.78,480.471,13.907z"/>
				<path style="fill:#AED1EF;" d="M496.534,13.907c-0.208,1.127-1.29,1.872-2.417,1.664c-1.127-0.208-1.872-1.29-1.664-2.417
					s1.29-1.872,2.417-1.664C495.996,11.698,496.741,12.78,496.534,13.907z"/>
			</g>
			<g>
				<path style="fill:#AED1EF;" d="M432.284,27.437c-0.208,1.127-1.29,1.872-2.417,1.664c-1.127-0.208-1.872-1.29-1.664-2.417
					c0.208-1.127,1.29-1.872,2.417-1.664C431.747,25.228,432.492,26.31,432.284,27.437z"/>
				<path style="fill:#AED1EF;" d="M448.347,27.437c-0.208,1.127-1.29,1.872-2.417,1.664c-1.127-0.208-1.872-1.29-1.664-2.417
					c0.208-1.127,1.29-1.872,2.417-1.664C447.81,25.228,448.555,26.31,448.347,27.437z"/>
				<path style="fill:#AED1EF;" d="M464.409,27.437c-0.208,1.127-1.29,1.872-2.417,1.664c-1.127-0.208-1.872-1.29-1.664-2.417
					c0.208-1.127,1.29-1.872,2.417-1.664C463.872,25.228,464.617,26.31,464.409,27.437z"/>
				<path style="fill:#AED1EF;" d="M480.471,27.437c-0.208,1.127-1.29,1.872-2.417,1.664c-1.127-0.208-1.872-1.29-1.664-2.417
					c0.208-1.127,1.29-1.872,2.417-1.664C479.934,25.228,480.679,26.31,480.471,27.437z"/>
				<path style="fill:#AED1EF;" d="M496.534,27.437c-0.208,1.127-1.29,1.872-2.417,1.664c-1.127-0.208-1.872-1.29-1.664-2.417
					s1.29-1.872,2.417-1.664C495.996,25.228,496.741,26.31,496.534,27.437z"/>
			</g>
			<g>
				<path style="fill:#AED1EF;" d="M432.284,40.967c-0.208,1.127-1.29,1.872-2.417,1.664c-1.127-0.208-1.872-1.29-1.664-2.417
					c0.208-1.127,1.29-1.872,2.417-1.664C431.747,38.758,432.492,39.84,432.284,40.967z"/>
				<path style="fill:#AED1EF;" d="M448.347,40.967c-0.208,1.127-1.29,1.872-2.417,1.664c-1.127-0.208-1.872-1.29-1.664-2.417
					c0.208-1.127,1.29-1.872,2.417-1.664C447.81,38.758,448.555,39.84,448.347,40.967z"/>
				<path style="fill:#AED1EF;" d="M464.409,40.967c-0.208,1.127-1.29,1.872-2.417,1.664c-1.127-0.208-1.872-1.29-1.664-2.417
					c0.208-1.127,1.29-1.872,2.417-1.664C463.872,38.758,464.617,39.84,464.409,40.967z"/>
				<path style="fill:#AED1EF;" d="M480.471,40.967c-0.208,1.127-1.29,1.872-2.417,1.664c-1.127-0.208-1.872-1.29-1.664-2.417
					c0.208-1.127,1.29-1.872,2.417-1.664C479.934,38.758,480.679,39.84,480.471,40.967z"/>
				<path style="fill:#AED1EF;" d="M496.534,40.967c-0.208,1.127-1.29,1.872-2.417,1.664c-1.127-0.208-1.872-1.29-1.664-2.417
					c0.208-1.127,1.29-1.872,2.417-1.664C495.996,38.758,496.741,39.84,496.534,40.967z"/>
			</g>
			<g>
				<path style="fill:#AED1EF;" d="M432.284,54.497c-0.208,1.127-1.29,1.872-2.417,1.664c-1.127-0.208-1.872-1.29-1.664-2.417
					c0.208-1.127,1.29-1.872,2.417-1.664C431.747,52.288,432.492,53.37,432.284,54.497z"/>
				<path style="fill:#AED1EF;" d="M448.347,54.497c-0.208,1.127-1.29,1.872-2.417,1.664c-1.127-0.208-1.872-1.29-1.664-2.417
					c0.208-1.127,1.29-1.872,2.417-1.664C447.81,52.288,448.555,53.37,448.347,54.497z"/>
				<path style="fill:#AED1EF;" d="M464.409,54.497c-0.208,1.127-1.29,1.872-2.417,1.664c-1.127-0.208-1.872-1.29-1.664-2.417
					c0.208-1.127,1.29-1.872,2.417-1.664C463.872,52.288,464.617,53.37,464.409,54.497z"/>
				<path style="fill:#AED1EF;" d="M480.471,54.497c-0.208,1.127-1.29,1.872-2.417,1.664c-1.127-0.208-1.872-1.29-1.664-2.417
					c0.208-1.127,1.29-1.872,2.417-1.664C479.934,52.288,480.679,53.37,480.471,54.497z"/>
				<path style="fill:#AED1EF;" d="M496.534,54.497c-0.208,1.127-1.29,1.872-2.417,1.664c-1.127-0.208-1.872-1.29-1.664-2.417
					c0.208-1.127,1.29-1.872,2.417-1.664C495.996,52.288,496.741,53.37,496.534,54.497z"/>
			</g>
			<g>
				<path style="fill:#AED1EF;" d="M432.284,68.027c-0.208,1.127-1.29,1.872-2.417,1.664c-1.127-0.208-1.872-1.29-1.664-2.417
					c0.208-1.127,1.29-1.872,2.417-1.664C431.747,65.819,432.492,66.901,432.284,68.027z"/>
				<path style="fill:#AED1EF;" d="M448.347,68.027c-0.208,1.127-1.29,1.872-2.417,1.664c-1.127-0.208-1.872-1.29-1.664-2.417
					c0.208-1.127,1.29-1.872,2.417-1.664C447.81,65.819,448.555,66.901,448.347,68.027z"/>
				<path style="fill:#AED1EF;" d="M464.409,68.027c-0.208,1.127-1.29,1.872-2.417,1.664c-1.127-0.208-1.872-1.29-1.664-2.417
					c0.208-1.127,1.29-1.872,2.417-1.664C463.872,65.819,464.617,66.901,464.409,68.027z"/>
				<path style="fill:#AED1EF;" d="M480.471,68.027c-0.208,1.127-1.29,1.872-2.417,1.664s-1.872-1.29-1.664-2.417
					c0.208-1.127,1.29-1.872,2.417-1.664C479.934,65.819,480.679,66.901,480.471,68.027z"/>
				<path style="fill:#AED1EF;" d="M496.534,68.027c-0.208,1.127-1.29,1.872-2.417,1.664s-1.872-1.29-1.664-2.417
					c0.208-1.127,1.29-1.872,2.417-1.664C495.996,65.819,496.741,66.901,496.534,68.027z"/>
			</g>
		</g>
		<g style="clip-path:url(#SVGID_00000040563304286029562530000005330709432901922479_);">
			<g>
				<path style="fill:#AED1EF;" d="M237.93,413.132c-0.208,1.127-1.29,1.872-2.417,1.664c-1.127-0.208-1.872-1.29-1.664-2.417
					s1.29-1.872,2.417-1.664C237.393,410.923,238.138,412.005,237.93,413.132z"/>
				<path style="fill:#AED1EF;" d="M253.992,413.132c-0.208,1.127-1.29,1.872-2.417,1.664c-1.127-0.208-1.872-1.29-1.664-2.417
					c0.208-1.127,1.29-1.872,2.417-1.664C253.455,410.923,254.2,412.005,253.992,413.132z"/>
				<path style="fill:#AED1EF;" d="M270.055,413.132c-0.208,1.127-1.29,1.872-2.417,1.664c-1.127-0.208-1.872-1.29-1.664-2.417
					c0.208-1.127,1.29-1.872,2.417-1.664C269.518,410.923,270.263,412.005,270.055,413.132z"/>
				<path style="fill:#AED1EF;" d="M286.117,413.132c-0.208,1.127-1.29,1.872-2.417,1.664c-1.127-0.208-1.872-1.29-1.664-2.417
					c0.208-1.127,1.29-1.872,2.417-1.664C285.58,410.923,286.325,412.005,286.117,413.132z"/>
				<path style="fill:#AED1EF;" d="M302.179,413.132c-0.208,1.127-1.29,1.872-2.417,1.664c-1.127-0.208-1.872-1.29-1.664-2.417
					s1.29-1.872,2.417-1.664C301.642,410.923,302.387,412.005,302.179,413.132z"/>
			</g>
			<g>
				<path style="fill:#AED1EF;" d="M237.93,426.662c-0.208,1.127-1.29,1.872-2.417,1.664c-1.127-0.208-1.872-1.29-1.664-2.417
					s1.29-1.872,2.417-1.664C237.393,424.453,238.138,425.535,237.93,426.662z"/>
				<path style="fill:#AED1EF;" d="M253.992,426.662c-0.208,1.127-1.29,1.872-2.417,1.664c-1.127-0.208-1.872-1.29-1.664-2.417
					c0.208-1.127,1.29-1.872,2.417-1.664C253.455,424.453,254.2,425.535,253.992,426.662z"/>
				<path style="fill:#AED1EF;" d="M270.055,426.662c-0.208,1.127-1.29,1.872-2.417,1.664c-1.127-0.208-1.872-1.29-1.664-2.417
					c0.208-1.127,1.29-1.872,2.417-1.664C269.518,424.453,270.263,425.535,270.055,426.662z"/>
				<path style="fill:#AED1EF;" d="M286.117,426.662c-0.208,1.127-1.29,1.872-2.417,1.664c-1.127-0.208-1.872-1.29-1.664-2.417
					c0.208-1.127,1.29-1.872,2.417-1.664C285.58,424.453,286.325,425.535,286.117,426.662z"/>
				<path style="fill:#AED1EF;" d="M302.179,426.662c-0.208,1.127-1.29,1.872-2.417,1.664c-1.127-0.208-1.872-1.29-1.664-2.417
					s1.29-1.872,2.417-1.664C301.642,424.453,302.387,425.535,302.179,426.662z"/>
			</g>
			<g>
				<path style="fill:#AED1EF;" d="M237.93,440.192c-0.208,1.127-1.29,1.872-2.417,1.664c-1.127-0.208-1.872-1.29-1.664-2.417
					s1.29-1.872,2.417-1.664C237.393,437.983,238.138,439.065,237.93,440.192z"/>
				<path style="fill:#AED1EF;" d="M253.992,440.192c-0.208,1.127-1.29,1.872-2.417,1.664c-1.127-0.208-1.872-1.29-1.664-2.417
					c0.208-1.127,1.29-1.872,2.417-1.664C253.455,437.983,254.2,439.065,253.992,440.192z"/>
				<path style="fill:#AED1EF;" d="M270.055,440.192c-0.208,1.127-1.29,1.872-2.417,1.664c-1.127-0.208-1.872-1.29-1.664-2.417
					c0.208-1.127,1.29-1.872,2.417-1.664C269.518,437.983,270.263,439.065,270.055,440.192z"/>
				<path style="fill:#AED1EF;" d="M286.117,440.192c-0.208,1.127-1.29,1.872-2.417,1.664c-1.127-0.208-1.872-1.29-1.664-2.417
					c0.208-1.127,1.29-1.872,2.417-1.664C285.58,437.983,286.325,439.065,286.117,440.192z"/>
				<path style="fill:#AED1EF;" d="M302.179,440.192c-0.208,1.127-1.29,1.872-2.417,1.664c-1.127-0.208-1.872-1.29-1.664-2.417
					s1.29-1.872,2.417-1.664C301.642,437.983,302.387,439.065,302.179,440.192z"/>
			</g>
			<g>
				<path style="fill:#AED1EF;" d="M237.93,453.723c-0.208,1.127-1.29,1.872-2.417,1.664c-1.127-0.208-1.872-1.29-1.664-2.417
					s1.29-1.872,2.417-1.664C237.393,451.514,238.138,452.596,237.93,453.723z"/>
				<path style="fill:#AED1EF;" d="M253.992,453.723c-0.208,1.127-1.29,1.872-2.417,1.664c-1.127-0.208-1.872-1.29-1.664-2.417
					c0.208-1.127,1.29-1.872,2.417-1.664C253.455,451.514,254.2,452.596,253.992,453.723z"/>
				<path style="fill:#AED1EF;" d="M270.055,453.723c-0.208,1.127-1.29,1.872-2.417,1.664c-1.127-0.208-1.872-1.29-1.664-2.417
					c0.208-1.127,1.29-1.872,2.417-1.664C269.518,451.514,270.263,452.596,270.055,453.723z"/>
				<path style="fill:#AED1EF;" d="M286.117,453.723c-0.208,1.127-1.29,1.872-2.417,1.664c-1.127-0.208-1.872-1.29-1.664-2.417
					c0.208-1.127,1.29-1.872,2.417-1.664C285.58,451.514,286.325,452.596,286.117,453.723z"/>
				<path style="fill:#AED1EF;" d="M302.179,453.723c-0.208,1.127-1.29,1.872-2.417,1.664c-1.127-0.208-1.872-1.29-1.664-2.417
					s1.29-1.872,2.417-1.664C301.642,451.514,302.387,452.596,302.179,453.723z"/>
			</g>
			<g>
				<path style="fill:#AED1EF;" d="M237.93,467.253c-0.208,1.127-1.29,1.872-2.417,1.664c-1.127-0.208-1.872-1.29-1.664-2.417
					s1.29-1.872,2.417-1.664C237.393,465.044,238.138,466.126,237.93,467.253z"/>
				<path style="fill:#AED1EF;" d="M253.992,467.253c-0.208,1.127-1.29,1.872-2.417,1.664c-1.127-0.208-1.872-1.29-1.664-2.417
					c0.208-1.127,1.29-1.872,2.417-1.664C253.455,465.044,254.2,466.126,253.992,467.253z"/>
				<path style="fill:#AED1EF;" d="M270.055,467.253c-0.208,1.127-1.29,1.872-2.417,1.664c-1.127-0.208-1.872-1.29-1.664-2.417
					c0.208-1.127,1.29-1.872,2.417-1.664C269.518,465.044,270.263,466.126,270.055,467.253z"/>
				<path style="fill:#AED1EF;" d="M286.117,467.253c-0.208,1.127-1.29,1.872-2.417,1.664c-1.127-0.208-1.872-1.29-1.664-2.417
					c0.208-1.127,1.29-1.872,2.417-1.664C285.58,465.044,286.325,466.126,286.117,467.253z"/>
				<path style="fill:#AED1EF;" d="M302.179,467.253c-0.208,1.127-1.29,1.872-2.417,1.664c-1.127-0.208-1.872-1.29-1.664-2.417
					s1.29-1.872,2.417-1.664C301.642,465.044,302.387,466.126,302.179,467.253z"/>
			</g>
			<g>
				<path style="fill:#AED1EF;" d="M237.93,480.783c-0.208,1.127-1.29,1.872-2.417,1.664c-1.127-0.208-1.872-1.29-1.664-2.417
					s1.29-1.872,2.417-1.664C237.393,478.574,238.138,479.656,237.93,480.783z"/>
				<path style="fill:#AED1EF;" d="M253.992,480.783c-0.208,1.127-1.29,1.872-2.417,1.664c-1.127-0.208-1.872-1.29-1.664-2.417
					c0.208-1.127,1.29-1.872,2.417-1.664C253.455,478.574,254.2,479.656,253.992,480.783z"/>
				<path style="fill:#AED1EF;" d="M270.055,480.783c-0.208,1.127-1.29,1.872-2.417,1.664c-1.127-0.208-1.872-1.29-1.664-2.417
					c0.208-1.127,1.29-1.872,2.417-1.664C269.518,478.574,270.263,479.656,270.055,480.783z"/>
				<path style="fill:#AED1EF;" d="M286.117,480.783c-0.208,1.127-1.29,1.872-2.417,1.664c-1.127-0.208-1.872-1.29-1.664-2.417
					c0.208-1.127,1.29-1.872,2.417-1.664C285.58,478.574,286.325,479.656,286.117,480.783z"/>
				<path style="fill:#AED1EF;" d="M302.179,480.783c-0.208,1.127-1.29,1.872-2.417,1.664c-1.127-0.208-1.872-1.29-1.664-2.417
					s1.29-1.872,2.417-1.664C301.642,478.574,302.387,479.656,302.179,480.783z"/>
			</g>
			<g>
				<path style="fill:#AED1EF;" d="M237.93,494.313c-0.208,1.127-1.29,1.872-2.417,1.664c-1.127-0.208-1.872-1.29-1.664-2.417
					s1.29-1.872,2.417-1.664C237.393,492.104,238.138,493.186,237.93,494.313z"/>
				<path style="fill:#AED1EF;" d="M253.992,494.313c-0.208,1.127-1.29,1.872-2.417,1.664c-1.127-0.208-1.872-1.29-1.664-2.417
					c0.208-1.127,1.29-1.872,2.417-1.664C253.455,492.104,254.2,493.186,253.992,494.313z"/>
				<path style="fill:#AED1EF;" d="M270.055,494.313c-0.208,1.127-1.29,1.872-2.417,1.664c-1.127-0.208-1.872-1.29-1.664-2.417
					c0.208-1.127,1.29-1.872,2.417-1.664C269.518,492.104,270.263,493.186,270.055,494.313z"/>
				<path style="fill:#AED1EF;" d="M286.117,494.313c-0.208,1.127-1.29,1.872-2.417,1.664c-1.127-0.208-1.872-1.29-1.664-2.417
					c0.208-1.127,1.29-1.872,2.417-1.664C285.58,492.104,286.325,493.186,286.117,494.313z"/>
				<path style="fill:#AED1EF;" d="M302.179,494.313c-0.208,1.127-1.29,1.872-2.417,1.664c-1.127-0.208-1.872-1.29-1.664-2.417
					s1.29-1.872,2.417-1.664C301.642,492.104,302.387,493.186,302.179,494.313z"/>
			</g>
			<g>
				<path style="fill:#AED1EF;" d="M237.93,507.843c-0.208,1.127-1.29,1.872-2.417,1.664c-1.127-0.208-1.872-1.29-1.664-2.417
					c0.208-1.127,1.29-1.872,2.417-1.664C237.393,505.635,238.138,506.716,237.93,507.843z"/>
				<path style="fill:#AED1EF;" d="M253.992,507.843c-0.208,1.127-1.29,1.872-2.417,1.664c-1.127-0.208-1.872-1.29-1.664-2.417
					c0.208-1.127,1.29-1.872,2.417-1.664C253.455,505.635,254.2,506.716,253.992,507.843z"/>
				<path style="fill:#AED1EF;" d="M270.055,507.843c-0.208,1.127-1.29,1.872-2.417,1.664c-1.127-0.208-1.872-1.29-1.664-2.417
					c0.208-1.127,1.29-1.872,2.417-1.664C269.518,505.635,270.263,506.716,270.055,507.843z"/>
				<path style="fill:#AED1EF;" d="M286.117,507.843c-0.208,1.127-1.29,1.872-2.417,1.664c-1.127-0.208-1.872-1.29-1.664-2.417
					c0.208-1.127,1.29-1.872,2.417-1.664C285.58,505.635,286.325,506.716,286.117,507.843z"/>
				<path style="fill:#AED1EF;" d="M302.179,507.843c-0.208,1.127-1.29,1.872-2.417,1.664c-1.127-0.208-1.872-1.29-1.664-2.417
					c0.208-1.127,1.29-1.872,2.417-1.664C301.642,505.635,302.387,506.716,302.179,507.843z"/>
			</g>
			<g>
				<path style="fill:#AED1EF;" d="M237.93,521.374c-0.208,1.127-1.29,1.872-2.417,1.664c-1.127-0.208-1.872-1.29-1.664-2.417
					c0.208-1.127,1.29-1.872,2.417-1.664C237.393,519.165,238.138,520.247,237.93,521.374z"/>
				<path style="fill:#AED1EF;" d="M253.992,521.374c-0.208,1.127-1.29,1.872-2.417,1.664c-1.127-0.208-1.872-1.29-1.664-2.417
					c0.208-1.127,1.29-1.872,2.417-1.664C253.455,519.165,254.2,520.247,253.992,521.374z"/>
				<path style="fill:#AED1EF;" d="M270.055,521.374c-0.208,1.127-1.29,1.872-2.417,1.664c-1.127-0.208-1.872-1.29-1.664-2.417
					c0.208-1.127,1.29-1.872,2.417-1.664C269.518,519.165,270.263,520.247,270.055,521.374z"/>
				<path style="fill:#AED1EF;" d="M286.117,521.374c-0.208,1.127-1.29,1.872-2.417,1.664c-1.127-0.208-1.872-1.29-1.664-2.417
					c0.208-1.127,1.29-1.872,2.417-1.664C285.58,519.165,286.325,520.247,286.117,521.374z"/>
				<path style="fill:#AED1EF;" d="M302.179,521.374c-0.208,1.127-1.29,1.872-2.417,1.664c-1.127-0.208-1.872-1.29-1.664-2.417
					c0.208-1.127,1.29-1.872,2.417-1.664C301.642,519.165,302.387,520.247,302.179,521.374z"/>
			</g>
			<g>
				<path style="fill:#AED1EF;" d="M237.93,534.904c-0.208,1.127-1.29,1.872-2.417,1.664s-1.872-1.29-1.664-2.417
					c0.208-1.127,1.29-1.872,2.417-1.664C237.393,532.695,238.138,533.777,237.93,534.904z"/>
				<path style="fill:#AED1EF;" d="M253.992,534.904c-0.208,1.127-1.29,1.872-2.417,1.664s-1.872-1.29-1.664-2.417
					c0.208-1.127,1.29-1.872,2.417-1.664C253.455,532.695,254.2,533.777,253.992,534.904z"/>
				<path style="fill:#AED1EF;" d="M270.055,534.904c-0.208,1.127-1.29,1.872-2.417,1.664s-1.872-1.29-1.664-2.417
					c0.208-1.127,1.29-1.872,2.417-1.664C269.518,532.695,270.263,533.777,270.055,534.904z"/>
				<path style="fill:#AED1EF;" d="M286.117,534.904c-0.208,1.127-1.29,1.872-2.417,1.664s-1.872-1.29-1.664-2.417
					c0.208-1.127,1.29-1.872,2.417-1.664C285.58,532.695,286.325,533.777,286.117,534.904z"/>
				<path style="fill:#AED1EF;" d="M302.179,534.904c-0.208,1.127-1.29,1.872-2.417,1.664s-1.872-1.29-1.664-2.417
					c0.208-1.127,1.29-1.872,2.417-1.664C301.642,532.695,302.387,533.777,302.179,534.904z"/>
			</g>
			<g>
				<path style="fill:#AED1EF;" d="M237.93,548.434c-0.208,1.127-1.29,1.872-2.417,1.664s-1.872-1.29-1.664-2.417
					c0.208-1.127,1.29-1.872,2.417-1.664C237.393,546.225,238.138,547.307,237.93,548.434z"/>
				<path style="fill:#AED1EF;" d="M253.992,548.434c-0.208,1.127-1.29,1.872-2.417,1.664s-1.872-1.29-1.664-2.417
					c0.208-1.127,1.29-1.872,2.417-1.664C253.455,546.225,254.2,547.307,253.992,548.434z"/>
				<path style="fill:#AED1EF;" d="M270.055,548.434c-0.208,1.127-1.29,1.872-2.417,1.664s-1.872-1.29-1.664-2.417
					c0.208-1.127,1.29-1.872,2.417-1.664C269.518,546.225,270.263,547.307,270.055,548.434z"/>
				<path style="fill:#AED1EF;" d="M286.117,548.434c-0.208,1.127-1.29,1.872-2.417,1.664s-1.872-1.29-1.664-2.417
					c0.208-1.127,1.29-1.872,2.417-1.664C285.58,546.225,286.325,547.307,286.117,548.434z"/>
				<path style="fill:#AED1EF;" d="M302.179,548.434c-0.208,1.127-1.29,1.872-2.417,1.664s-1.872-1.29-1.664-2.417
					c0.208-1.127,1.29-1.872,2.417-1.664C301.642,546.225,302.387,547.307,302.179,548.434z"/>
			</g>
		</g>
		
			<ellipse transform="matrix(0.2309 -0.973 0.973 0.2309 182.2073 935.9352)" style="clip-path:url(#SVGID_00000040563304286029562530000005330709432901922479_);fill:none;stroke:#000000;stroke-width:2;stroke-miterlimit:10;" cx="683.107" cy="352.717" rx="11.346" ry="11.346"/>
		
			<ellipse transform="matrix(0.7071 -0.7071 0.7071 0.7071 52.5008 356.7085)" style="clip-path:url(#SVGID_00000040563304286029562530000005330709432901922479_);fill:none;stroke:#000000;stroke-width:1.7071;stroke-miterlimit:10;" cx="456.836" cy="114.98" rx="9.685" ry="9.685"/>
		<g style="clip-path:url(#SVGID_00000040563304286029562530000005330709432901922479_);">
			<polyline style="fill:none;stroke:#000000;stroke-width:2;stroke-miterlimit:10;" points="556.693,74.622 564.86,82.789 
				556.693,90.956 			"/>
			<polyline style="fill:none;stroke:#000000;stroke-width:2;stroke-miterlimit:10;" points="564.835,74.622 573.002,82.789 
				564.835,90.956 			"/>
			<polyline style="fill:none;stroke:#000000;stroke-width:2;stroke-miterlimit:10;" points="572.977,74.622 581.144,82.789 
				572.977,90.956 			"/>
			<polyline style="fill:none;stroke:#000000;stroke-width:2;stroke-miterlimit:10;" points="581.119,74.622 589.286,82.789 
				581.119,90.956 			"/>
			<polyline style="fill:none;stroke:#000000;stroke-width:2;stroke-miterlimit:10;" points="589.261,74.622 597.428,82.789 
				589.261,90.956 			"/>
		</g>
		<g style="clip-path:url(#SVGID_00000040563304286029562530000005330709432901922479_);">
			<polyline style="fill:none;stroke:#000000;stroke-width:2;stroke-miterlimit:10;" points="163.514,366.737 171.681,374.904 
				163.514,383.071 			"/>
			<polyline style="fill:none;stroke:#000000;stroke-width:2;stroke-miterlimit:10;" points="171.656,366.737 179.822,374.904 
				171.656,383.071 			"/>
			<polyline style="fill:none;stroke:#000000;stroke-width:2;stroke-miterlimit:10;" points="179.797,366.737 187.964,374.904 
				179.797,383.071 			"/>
			<polyline style="fill:none;stroke:#000000;stroke-width:2;stroke-miterlimit:10;" points="187.939,366.737 196.106,374.904 
				187.939,383.071 			"/>
			<polyline style="fill:none;stroke:#000000;stroke-width:2;stroke-miterlimit:10;" points="196.081,366.737 204.248,374.904 
				196.081,383.071 			"/>
		</g>
		<g style="clip-path:url(#SVGID_00000040563304286029562530000005330709432901922479_);">
			<polyline style="fill:none;stroke:#000000;stroke-width:2;stroke-miterlimit:10;" points="100.147,87.216 108.314,95.383 
				100.147,103.55 			"/>
			<polyline style="fill:none;stroke:#000000;stroke-width:2;stroke-miterlimit:10;" points="108.289,87.216 116.456,95.383 
				108.289,103.55 			"/>
			<polyline style="fill:none;stroke:#000000;stroke-width:2;stroke-miterlimit:10;" points="116.431,87.216 124.598,95.383 
				116.431,103.55 			"/>
			<polyline style="fill:none;stroke:#000000;stroke-width:2;stroke-miterlimit:10;" points="124.573,87.216 132.74,95.383 
				124.573,103.55 			"/>
			<polyline style="fill:none;stroke:#000000;stroke-width:2;stroke-miterlimit:10;" points="132.715,87.216 140.882,95.383 
				132.715,103.55 			"/>
		</g>
		<g style="clip-path:url(#SVGID_00000040563304286029562530000005330709432901922479_);">
			<path d="M189.21-15.547c-7.889,5.547-14.969,4.307-20.657,3.31c-5.307-0.93-9.5-1.664-14.675,1.974
				c-5.175,3.639-5.901,7.832-6.822,13.141c-0.986,5.69-2.214,12.772-10.103,18.319c-7.889,5.547-14.968,4.306-20.656,3.309
				c-5.307-0.931-9.499-1.665-14.672,1.973c-5.174,3.638-5.9,7.831-6.821,13.14c-0.986,5.69-2.213,12.771-10.101,18.318
				s-14.968,4.306-20.656,3.309c-5.307-0.931-9.499-1.665-14.672,1.973l-4.601-6.544c7.888-5.546,14.967-4.306,20.655-3.308
				c5.307,0.931,9.499,1.665,14.673-1.973c5.174-3.638,5.9-7.831,6.821-13.14c0.986-5.69,2.213-12.771,10.102-18.318
				c7.888-5.546,14.967-4.305,20.655-3.308c5.307,0.931,9.499,1.665,14.673-1.973c5.175-3.639,5.902-7.832,6.822-13.142
				c0.987-5.69,2.214-12.771,10.103-18.318c7.889-5.548,14.969-4.307,20.657-3.31c5.307,0.93,9.5,1.664,14.674-1.974L189.21-15.547z
				"/>
		</g>
		<g style="clip-path:url(#SVGID_00000040563304286029562530000005330709432901922479_);">
			<path d="M561.229,313.723c7.746-5.747,14.854-4.686,20.566-3.835c5.329,0.794,9.539,1.422,14.619-2.347
				c5.081-3.769,5.7-7.98,6.485-13.31c0.841-5.714,1.888-12.824,9.633-18.571c7.745-5.746,14.853-4.686,20.565-3.834
				c5.329,0.795,9.538,1.423,14.617-2.346c5.08-3.769,5.699-7.979,6.484-13.31c0.841-5.713,1.887-12.824,9.632-18.57
				c7.745-5.746,14.853-4.686,20.565-3.834c5.328,0.795,9.538,1.423,14.617-2.346l4.767,6.425
				c-7.744,5.745-14.853,4.685-20.564,3.833c-5.329-0.795-9.538-1.423-14.618,2.346c-5.08,3.769-5.699,7.979-6.484,13.31
				c-0.841,5.713-1.887,12.823-9.632,18.57c-7.744,5.745-14.852,4.685-20.564,3.833c-5.328-0.795-9.538-1.422-14.618,2.346
				c-5.081,3.769-5.701,7.98-6.485,13.311c-0.841,5.713-1.888,12.824-9.633,18.57c-7.745,5.747-14.854,4.686-20.566,3.835
				c-5.329-0.794-9.539-1.422-14.619,2.347L561.229,313.723z"/>
		</g>
		<g style="clip-path:url(#SVGID_00000040563304286029562530000005330709432901922479_);">
			<g>
				<path style="fill:#AED1EF;" d="M723.639,73.096c-8.822,7.067-17.221,6.132-23.353,5.449c-5.504-0.613-8.084-0.766-11.579,2.034
					c-3.495,2.799-3.908,5.351-4.511,10.855c-0.672,6.134-1.591,14.535-10.413,21.602c-8.821,7.067-17.22,6.131-23.352,5.447
					c-5.502-0.613-8.082-0.766-11.576,2.033c-3.494,2.799-3.908,5.351-4.51,10.854c-0.671,6.133-1.59,14.534-10.412,21.6
					c-8.821,7.067-17.22,6.131-23.352,5.447c-5.502-0.613-8.082-0.766-11.576,2.033L579,147.964
					c8.82-7.066,17.219-6.13,23.351-5.447c5.503,0.613,8.083,0.766,11.577-2.033c3.495-2.799,3.908-5.351,4.51-10.854
					c0.671-6.133,1.591-14.534,10.412-21.601c8.82-7.066,17.219-6.13,23.351-5.447c5.503,0.613,8.083,0.766,11.577-2.033
					c3.495-2.8,3.909-5.352,4.512-10.856c0.672-6.134,1.592-14.534,10.413-21.601c8.822-7.067,17.221-6.132,23.353-5.449
					c5.504,0.613,8.084,0.766,11.579-2.034L723.639,73.096z"/>
			</g>
			<g>
				<path style="fill:none;stroke:#000000;stroke-width:2;stroke-miterlimit:10;" d="M718.374,66.524
					c-8.822,7.067-17.221,6.132-23.353,5.449c-5.504-0.613-8.084-0.766-11.579,2.034c-3.495,2.799-3.908,5.351-4.511,10.855
					c-0.672,6.134-1.591,14.535-10.413,21.602c-8.821,7.067-17.22,6.131-23.352,5.447c-5.502-0.613-8.082-0.766-11.576,2.033
					c-3.495,2.799-3.908,5.351-4.51,10.854c-0.671,6.133-1.591,14.534-10.412,21.601c-8.821,7.067-17.22,6.131-23.352,5.447
					c-5.502-0.613-8.082-0.766-11.576,2.033l-10.003-12.487c8.821-7.066,17.219-6.13,23.351-5.447
					c5.503,0.613,8.083,0.766,11.577-2.033c3.494-2.799,3.908-5.351,4.51-10.854c0.671-6.133,1.591-14.534,10.412-21.601
					c8.82-7.066,17.219-6.13,23.351-5.447c5.503,0.613,8.083,0.766,11.577-2.033c3.495-2.8,3.909-5.352,4.512-10.856
					c0.672-6.134,1.592-14.534,10.413-21.601c8.822-7.067,17.221-6.132,23.353-5.449c5.504,0.613,8.084,0.766,11.579-2.034
					L718.374,66.524z"/>
			</g>
		</g>
		<g style="clip-path:url(#SVGID_00000040563304286029562530000005330709432901922479_);">
			<path style="fill:#B4D667;" d="M215.111,179.327H186.05c-0.813,0-1.321-0.88-0.915-1.585l14.53-25.167l14.53-25.167
				c0.407-0.704,1.423-0.704,1.83,0l14.53,25.167l14.53,25.167c0.407,0.704-0.102,1.585-0.915,1.585H215.111z"/>
			<path style="fill:none;stroke:#000000;stroke-width:1.4268;stroke-miterlimit:10;" d="M199.287,187.502h-29.061
				c-0.813,0-1.321-0.88-0.915-1.585l14.53-25.167l14.53-25.167c0.407-0.704,1.423-0.704,1.83,0l14.53,25.167l14.53,25.167
				c0.407,0.704-0.102,1.585-0.915,1.585H199.287z"/>
		</g>
		<g style="clip-path:url(#SVGID_00000040563304286029562530000005330709432901922479_);">
			<path style="fill:#B4D667;" d="M548.315,424.333h-29.061c-0.813,0-1.321-0.88-0.915-1.584l14.53-25.167l14.53-25.167
				c0.407-0.704,1.423-0.704,1.83,0l14.53,25.167l14.53,25.167c0.407,0.704-0.102,1.584-0.915,1.584H548.315z"/>
			<path style="fill:none;stroke:#000000;stroke-width:1.4268;stroke-miterlimit:10;" d="M532.492,432.507h-29.061
				c-0.813,0-1.321-0.88-0.915-1.584l14.53-25.167l14.53-25.167c0.407-0.704,1.423-0.704,1.83,0l14.53,25.167l14.53,25.167
				c0.407,0.704-0.102,1.584-0.915,1.584H532.492z"/>
		</g>
		<path style="clip-path:url(#SVGID_00000040563304286029562530000005330709432901922479_);fill:#B4D667;" d="M651.359,42.428
			l-5.89-5.89c-1.262-1.262-1.262-3.307,0-4.569l5.89-5.89c1.262-1.262,1.262-3.307,0-4.569l0,0c-1.262-1.262-3.307-1.262-4.569,0
			l-5.89,5.89c-1.262,1.262-3.307,1.262-4.569,0l-5.89-5.89c-1.262-1.262-3.307-1.262-4.569,0l0,0c-1.262,1.262-1.262,3.307,0,4.569
			l5.89,5.89c1.262,1.262,1.262,3.307,0,4.569l-5.89,5.89c-1.262,1.262-1.262,3.307,0,4.569l0,0c1.262,1.262,3.307,1.262,4.569,0
			l5.89-5.89c1.262-1.262,3.307-1.262,4.569,0l5.89,5.89c1.262,1.262,3.307,1.262,4.569,0l0,0
			C652.621,45.736,652.621,43.69,651.359,42.428z"/>
		<path style="clip-path:url(#SVGID_00000040563304286029562530000005330709432901922479_);fill:#B4D667;" d="M260.53,458.686
			l-5.89-5.89c-1.262-1.262-1.262-3.307,0-4.569l5.89-5.89c1.262-1.262,1.262-3.307,0-4.569l0,0c-1.262-1.262-3.307-1.262-4.569,0
			l-5.89,5.89c-1.262,1.262-3.307,1.262-4.569,0l-5.89-5.89c-1.262-1.262-3.307-1.262-4.569,0l0,0c-1.262,1.262-1.262,3.307,0,4.569
			l5.89,5.89c1.262,1.262,1.262,3.307,0,4.569l-5.89,5.89c-1.262,1.262-1.262,3.307,0,4.569h0c1.262,1.262,3.307,1.262,4.569,0
			l5.89-5.89c1.262-1.262,3.307-1.262,4.569,0l5.89,5.89c1.262,1.262,3.307,1.262,4.569,0l0,0
			C261.791,461.994,261.791,459.948,260.53,458.686z"/>
		<path style="clip-path:url(#SVGID_00000040563304286029562530000005330709432901922479_);fill:#B4D667;" d="M60.05,155.542
			l-6.268-5.486c-1.343-1.175-1.478-3.216-0.303-4.559l5.486-6.268c1.175-1.343,1.04-3.384-0.303-4.559l0,0
			c-1.343-1.175-3.384-1.04-4.559,0.303l-5.486,6.268c-1.175,1.343-3.216,1.478-4.559,0.303l-6.268-5.486
			c-1.343-1.175-3.384-1.04-4.559,0.303l0,0c-1.175,1.343-1.04,3.384,0.303,4.559l6.268,5.486c1.343,1.175,1.478,3.216,0.303,4.559
			l-5.486,6.268c-1.175,1.343-1.04,3.384,0.303,4.559l0,0c1.343,1.175,3.384,1.04,4.559-0.303l5.486-6.268
			c1.175-1.343,3.216-1.478,4.559-0.303l6.268,5.486c1.343,1.175,3.384,1.04,4.559-0.303l0,0
			C61.528,158.759,61.393,156.718,60.05,155.542z"/>
		
			<path style="clip-path:url(#SVGID_00000040563304286029562530000005330709432901922479_);fill:none;stroke:#000000;stroke-width:2;stroke-miterlimit:10;" d="
			M57.234,271.109l-43.188-43.188c-0.571-0.571-0.571-1.496,0-2.067l43.188-43.188c0.571-0.571,1.496-0.571,2.067,0l43.188,43.188
			c0.571,0.571,0.571,1.496,0,2.067l-43.188,43.188C58.73,271.68,57.805,271.68,57.234,271.109z"/>
		<g style="clip-path:url(#SVGID_00000040563304286029562530000005330709432901922479_);">
			<g>
				<g>
					<g>
						<g>
							<path d="M21.141,439.245c0-0.62,0.514-1.123,1.149-1.123s1.149,0.503,1.149,1.123c0,0.62-0.514,1.123-1.149,1.123
								S21.141,439.865,21.141,439.245z"/>
						</g>
						<g>
							<path d="M11.95,439.245c0-0.62,0.514-1.123,1.149-1.123c0.635,0,1.149,0.503,1.149,1.123c0,0.62-0.514,1.123-1.149,1.123
								C12.464,440.368,11.95,439.865,11.95,439.245z"/>
						</g>
						<g>
							<path d="M2.759,439.245c0-0.62,0.514-1.123,1.149-1.123c0.635,0,1.149,0.503,1.149,1.123c0,0.62-0.514,1.123-1.149,1.123
								C3.273,440.368,2.759,439.865,2.759,439.245z"/>
						</g>
						<g>
							<path d="M-6.433,439.245c0-0.62,0.514-1.123,1.149-1.123c0.635,0,1.149,0.503,1.149,1.123c0,0.62-0.514,1.123-1.149,1.123
								C-5.918,440.368-6.433,439.865-6.433,439.245z"/>
						</g>
						<g>
							<path d="M-10.484,433.695c0.62,0,1.123,0.514,1.123,1.149c0,0.634-0.503,1.149-1.123,1.149s-1.123-0.514-1.123-1.149
								C-11.607,434.21-11.104,433.695-10.484,433.695z"/>
						</g>
						<g>
							<path d="M-10.484,424.504c0.62,0,1.123,0.514,1.123,1.149c0,0.635-0.503,1.149-1.123,1.149s-1.123-0.514-1.123-1.149
								C-11.607,425.019-11.104,424.504-10.484,424.504z"/>
						</g>
						<g>
							<path d="M-10.484,415.313c0.62,0,1.123,0.514,1.123,1.149s-0.503,1.149-1.123,1.149s-1.123-0.514-1.123-1.149
								S-11.104,415.313-10.484,415.313z"/>
						</g>
						<g>
							<path d="M-10.484,406.122c0.62,0,1.123,0.514,1.123,1.149c0,0.634-0.503,1.149-1.123,1.149s-1.123-0.514-1.123-1.149
								C-11.607,406.636-11.104,406.122-10.484,406.122z"/>
						</g>
						<g>
							<path d="M-9.53,397.475c0.04,0.31-0.018,0.593,0.023,0.811c0.028,0.221,0.144,0.321,0.146,0.311c0,0-0.031-0.013-0.088-0.006
								c-0.028-0.022-0.063,0.074-0.103,0.13c-0.04,0.061-0.086,0.118-0.137,0.17c-0.203,0.208-0.484,0.337-0.794,0.337
								c-0.31,0-0.591-0.129-0.794-0.337c-0.051-0.052-0.097-0.109-0.137-0.17c-0.04-0.066-0.075-0.101-0.104-0.26
								c-0.058-0.267-0.04-0.577,0.086-0.862c0.248-0.584,0.835-0.85,1.236-0.785C-9.779,396.867-9.567,397.174-9.53,397.475z"/>
						</g>
						<g>
							<path d="M-0.339,397.475c0,0.62-0.514,1.123-1.149,1.123s-1.149-0.503-1.149-1.123s0.514-1.122,1.149-1.122
								S-0.339,396.855-0.339,397.475z"/>
						</g>
						<g>
							<path d="M8.852,397.475c0,0.62-0.514,1.123-1.149,1.123s-1.149-0.503-1.149-1.123s0.514-1.122,1.149-1.122
								S8.852,396.855,8.852,397.475z"/>
						</g>
						<g>
							<path d="M18.043,397.475c0,0.62-0.514,1.123-1.149,1.123c-0.635,0-1.149-0.503-1.149-1.123s0.514-1.122,1.149-1.122
								C17.529,396.352,18.043,396.855,18.043,397.475z"/>
						</g>
						<g>
							<path d="M27.235,397.475c0,0.62-0.514,1.123-1.149,1.123c-0.635,0-1.149-0.503-1.149-1.123s0.514-1.122,1.149-1.122
								C26.72,396.352,27.235,396.855,27.235,397.475z"/>
						</g>
						<g>
							<path d="M31.286,403.024c-0.62,0-1.123-0.514-1.123-1.149c0-0.634,0.503-1.149,1.123-1.149c0.62,0,1.123,0.514,1.123,1.149
								C32.409,402.51,31.906,403.024,31.286,403.024z"/>
						</g>
						<g>
							<path d="M31.286,412.216c-0.62,0-1.123-0.514-1.123-1.149c0-0.634,0.503-1.149,1.123-1.149c0.62,0,1.123,0.514,1.123,1.149
								C32.409,411.701,31.906,412.216,31.286,412.216z"/>
						</g>
						<g>
							<ellipse cx="31.286" cy="420.258" rx="1.123" ry="1.149"/>
						</g>
						<g>
							<path d="M31.286,430.598c-0.62,0-1.123-0.514-1.123-1.149c0-0.635,0.503-1.149,1.123-1.149c0.62,0,1.123,0.514,1.123,1.149
								C32.409,430.083,31.906,430.598,31.286,430.598z"/>
						</g>
						<g>
							<path d="M30.332,439.245c-0.04-0.31,0.018-0.593-0.023-0.811c-0.028-0.221-0.145-0.321-0.146-0.311
								c0,0,0.031,0.013,0.088,0.006c0.028,0.022,0.063-0.074,0.104-0.13c0.04-0.061,0.086-0.118,0.137-0.17
								c0.203-0.208,0.484-0.337,0.794-0.337s0.591,0.129,0.794,0.337c0.051,0.052,0.097,0.109,0.137,0.17
								c0.04,0.066,0.075,0.101,0.104,0.26c0.058,0.267,0.04,0.577-0.086,0.862c-0.247,0.584-0.835,0.85-1.236,0.785
								C30.581,439.853,30.369,439.545,30.332,439.245z"/>
						</g>
					</g>
				</g>
			</g>
		</g>
		<g style="clip-path:url(#SVGID_00000040563304286029562530000005330709432901922479_);">
			<polygon points="64.781,326.904 60.81,330.043 56.839,333.182 56.839,326.904 56.839,320.626 60.81,323.765 			"/>
			<polygon points="88.098,326.904 84.127,330.043 80.156,333.182 80.156,326.904 80.156,320.626 84.127,323.765 			"/>
			<polygon points="111.415,326.904 107.444,330.043 103.473,333.182 103.473,326.904 103.473,320.626 107.444,323.765 			"/>
			<polygon points="134.732,326.904 130.761,330.043 126.79,333.182 126.79,326.904 126.79,320.626 130.761,323.765 			"/>
			<polygon points="158.049,326.904 154.079,330.043 150.107,333.182 150.107,326.904 150.107,320.626 154.079,323.765 			"/>
		</g>
		<g style="clip-path:url(#SVGID_00000040563304286029562530000005330709432901922479_);">
			<polygon points="275.242,65.981 271.272,69.12 267.3,72.259 267.3,65.981 267.3,59.703 271.272,62.842 			"/>
			<polygon points="298.56,65.981 294.589,69.12 290.618,72.259 290.618,65.981 290.618,59.703 294.589,62.842 			"/>
			<polygon points="321.877,65.981 317.906,69.12 313.935,72.259 313.935,65.981 313.935,59.703 317.906,62.842 			"/>
			<polygon points="345.194,65.981 341.223,69.12 337.252,72.259 337.252,65.981 337.252,59.703 341.223,62.842 			"/>
			<polygon points="368.511,65.981 364.54,69.12 360.569,72.259 360.569,65.981 360.569,59.703 364.54,62.842 			"/>
		</g>
		
			<polygon style="clip-path:url(#SVGID_00000040563304286029562530000005330709432901922479_);fill:none;stroke:#000000;stroke-width:1.5882;stroke-miterlimit:10;" points="
			537.396,200.188 524.886,212.697 512.377,200.188 499.98,212.585 512.49,225.094 499.98,237.603 512.377,250 524.886,237.49 
			537.396,250 549.792,237.603 537.283,225.094 549.792,212.584 		"/>
		
			<polygon style="clip-path:url(#SVGID_00000040563304286029562530000005330709432901922479_);fill:none;stroke:#000000;stroke-width:1.4438;stroke-miterlimit:10;" points="
			110.392,411.39 98.242,421.926 87.706,409.776 75.665,420.217 86.202,432.367 74.052,442.903 84.493,454.944 96.643,444.408 
			107.179,456.558 119.219,446.116 108.683,433.966 120.833,423.431 		"/>
		<g style="clip-path:url(#SVGID_00000040563304286029562530000005330709432901922479_);">
			
				<line style="fill:none;stroke:#000000;stroke-width:3;stroke-linecap:round;stroke-miterlimit:10;" x1="615.826" y1="207.509" x2="648.972" y2="184.781"/>
			
				<line style="fill:none;stroke:#000000;stroke-width:3;stroke-linecap:round;stroke-miterlimit:10;" x1="648.972" y1="202.447" x2="703.375" y2="164.365"/>
		</g>
		<g style="clip-path:url(#SVGID_00000040563304286029562530000005330709432901922479_);">
			
				<line style="fill:none;stroke:#000000;stroke-width:3;stroke-linecap:round;stroke-miterlimit:10;" x1="169.919" y1="293.144" x2="203.065" y2="270.416"/>
			
				<line style="fill:none;stroke:#000000;stroke-width:3;stroke-linecap:round;stroke-miterlimit:10;" x1="203.065" y1="288.082" x2="257.467" y2="250"/>
		</g>
		
			<line style="clip-path:url(#SVGID_00000040563304286029562530000005330709432901922479_);fill:none;stroke:#000000;stroke-width:3;stroke-linecap:round;stroke-miterlimit:10;" x1="331.226" y1="414.468" x2="364.371" y2="391.74"/>
		
			<line style="clip-path:url(#SVGID_00000040563304286029562530000005330709432901922479_);fill:none;stroke:#000000;stroke-width:3;stroke-linecap:round;stroke-miterlimit:10;" x1="364.371" y1="409.405" x2="418.774" y2="371.324"/>
		
			<line style="clip-path:url(#SVGID_00000040563304286029562530000005330709432901922479_);fill:none;stroke:#000000;stroke-width:3;stroke-linecap:round;stroke-miterlimit:10;" x1="632.503" y1="478.077" x2="713.876" y2="427.304"/>
		<path style="clip-path:url(#SVGID_00000040563304286029562530000005330709432901922479_);" d="M728.759,106.993
			c-0.166-0.593-0.466-1.108-0.9-1.544c-0.685-0.629-1.527-1.025-2.475-1.025h-0.923c-0.482-0.018-0.932,0.082-1.349,0.301
			c-0.434,0.141-0.809,0.382-1.126,0.724c-0.341,0.317-0.583,0.693-0.724,1.126c-0.219,0.417-0.32,0.867-0.301,1.349
			c0.042,0.31,0.083,0.62,0.125,0.93c0.166,0.593,0.466,1.108,0.9,1.544c0.685,0.629,1.527,1.025,2.475,1.025h0.923
			c0.482,0.018,0.931-0.082,1.349-0.302c0.434-0.141,0.809-0.382,1.127-0.724c0.341-0.317,0.582-0.692,0.724-1.126
			c0.219-0.417,0.32-0.867,0.301-1.348C728.843,107.613,728.801,107.303,728.759,106.993z"/>
		<path style="clip-path:url(#SVGID_00000040563304286029562530000005330709432901922479_);" d="M585.077,355.5
			c-4.504,0-4.512,7,0,7C589.581,362.5,589.589,355.5,585.077,355.5z"/>
		<path style="clip-path:url(#SVGID_00000040563304286029562530000005330709432901922479_);" d="M723.538,469.961
			c-4.504,0-4.512,7,0,7C728.043,476.961,728.05,469.961,723.538,469.961z"/>
		<path style="clip-path:url(#SVGID_00000040563304286029562530000005330709432901922479_);" d="M251.656,307.596
			c-4.504,0-4.512,7,0,7C256.16,314.596,256.167,307.596,251.656,307.596z"/>
		<path style="clip-path:url(#SVGID_00000040563304286029562530000005330709432901922479_);" d="M140.886,243c-4.504,0-4.512,7,0,7
			C145.39,250,145.398,243,140.886,243z"/>
		<path style="clip-path:url(#SVGID_00000040563304286029562530000005330709432901922479_);" d="M394.425,470.904
			c-4.504,0-4.512,7,0,7C398.929,477.904,398.936,470.904,394.425,470.904z"/>
		<path style="clip-path:url(#SVGID_00000040563304286029562530000005330709432901922479_);" d="M24.769,19.5c-4.504,0-4.512,7,0,7
			C29.273,26.5,29.281,19.5,24.769,19.5z"/>
		<path style="clip-path:url(#SVGID_00000040563304286029562530000005330709432901922479_);" d="M220.585,68.632
			c-0.141-0.434-0.382-0.809-0.724-1.126c-0.317-0.341-0.693-0.582-1.126-0.724c-0.417-0.219-0.867-0.32-1.349-0.301
			c-0.31,0.042-0.62,0.083-0.93,0.125c-0.593,0.166-1.108,0.466-1.544,0.9c-0.629,0.685-1.025,1.527-1.025,2.475v0.923
			c-0.018,0.482,0.083,0.931,0.302,1.348c0.141,0.434,0.382,0.809,0.724,1.126c0.317,0.341,0.692,0.583,1.126,0.724
			c0.417,0.219,0.867,0.32,1.348,0.301c0.31-0.042,0.62-0.083,0.931-0.125c0.593-0.166,1.108-0.466,1.544-0.9
			c0.629-0.685,1.025-1.527,1.025-2.475v-0.923C220.905,69.499,220.804,69.049,220.585,68.632z"/>
		<path style="clip-path:url(#SVGID_00000040563304286029562530000005330709432901922479_);" d="M176.154,429.346
			c-4.504,0-4.511,7,0,7C180.658,436.346,180.665,429.346,176.154,429.346z"/>
		<path style="clip-path:url(#SVGID_00000040563304286029562530000005330709432901922479_);" d="M32.154,469.961
			c-4.504,0-4.512,7,0,7C36.658,476.961,36.666,469.961,32.154,469.961z"/>
		<path style="clip-path:url(#SVGID_00000040563304286029562530000005330709432901922479_);" d="M578.615,25.038
			c-4.504,0-4.512,7,0,7C583.119,32.038,583.127,25.038,578.615,25.038z"/>
	</g>
</g>
</svg>
